<svg xmlns="http://www.w3.org/2000/svg" width="96" height="63" fill="none"><path fill="#fff" d="m54.2 21.1-.8 4.7c0 .2-.1.3-.3.5l-.5.2h-6.9l-1 5.2h11.1c2.9 0 5.6-2.3 6.1-5.2l1-5.3h-8.7ZM50.3 0l-1 5.3h7a.5.5 0 0 1 .4.2.5.5 0 0 1 .1.5l-.7 4.6h8.6l1-5.3c.4-3-1.5-5.3-4.4-5.3h-11ZM43.7 31.7h-3.4c-3 0-4.8-2.4-4.3-5.3l3.6-21.1c.6-3 3.3-5.3 6.2-5.3h3.4l-5.5 31.7ZM84.5 21.1l-.8 4.7c0 .2-.1.3-.3.5l-.5.2H76l-.9 5.2h11c3 0 5.6-2.4 6.1-5.3l1-5.3h-8.7ZM80.6 0l-1 5.3h7a.5.5 0 0 1 .4.2.5.5 0 0 1 .1.5l-.8 4.6H95l1-5.3c.4-3-1.5-5.3-4.4-5.3h-11ZM74 31.7h-3.4c-3 0-4.8-2.4-4.3-5.3L70 5.3c.5-3 3.2-5.3 6-5.3h3.5L74 31.7ZM4.8 31.7h8.6L19 0H9.2l.5 3.3-5 28.4ZM35.3 5.3C35.8 2.3 34 0 31 0H20l-1 5.3h7a.5.5 0 0 1 .5.2.5.5 0 0 1 0 .5L25 15.2c0 .2 0 .3-.2.5l-.5.2h-7l-.9 5.2h4.2L22 31.7h8.7L29 21.1h.4c.8 0 1.7-.3 2.3-.9a4 4 0 0 0 1.3-2.2l2.2-12.7Z"/><path fill="url(#a)" d="M4.7 58.5H5l-.3-.1h.1Zm-.6-4.2c.1 0 .1-.1 0-.1Zm5.6-.6s.1 0 0 0Zm-5.5 0v-.1M10.4 54c.1 0 .2 0 .2-.2l.3-.3-.5.5m-6.1-.6s0 .1 0 0V53v.2m.1-.5c0 .2-.1.4 0 .1v-.2.1m.3-.1v-.2.2Zm0-.3c0 .1.1 0 .1 0Zm.2-.2Zm5.6-2v.1-.1h.1-.1Zm-4.6.4c-.2.3-.3.7-.1.4v-.2c.3 0 .6-.7.5-.7l-.4.5m1.2-.8Zm2-1.2c-.5.2-2.2 1-2.5 1.4h.1l.4-.2.4-.2 2.2-1.1h.1l2.2-.8c-1 .1-2 .4-2.9.9m-2.5-3.8v.2l.1-.1v-.1m-.5-.3h.1v-.1s-.1 0 0 0Zm1-.5a6 6 0 0 0-.8.4 10.5 10.5 0 0 0 2.6-1l-1.7.7m2.9-.7c-1.2.3-.2.2 0 0h.1-.1Zm0-1.5h.1Zm.8-.1Zm1-.1c.1 0 .2 0 .1-.1Zm-8.7 16s-.1-.1 0 0h.2v.1h-.2Zm3.8-.6-.4.2-.5.3.9-.5ZM4 56.7c0-.1.2 0 0 0m-2.7-.3v.1s-.2-.3 0 0Zm4.5-.5s0-.1.2 0h-.2c-.3.3-1.3.8-1.6.7l1.5-.6m-3.3-.4ZM4.7 55.5c-.2 0 .1-.1.1-.1m.1 0s.1-.1.1 0c-.1 0-.1 0 0 0m-2.1-.2c.1 0 0 0 0 .2v-.2m-.4.3c0-.1-.2-.2 0-.3 0 0-.1 0 0 0V55.5m2.6-.2.1-.1c.3-.2.1 0 0 0ZM2.5 55c.1 0-.1 0 0-.2v.3m4.3-.3c-.1 0-.1 0 0 0Zm-1 0h.1a1 1 0 0 1-.4.3l.3-.2Zm.2 0c0-.2 0-.1 0 0m-3.4-.1c0-.2.1-.2 0-.1m3.6 0s.4-.3.2 0l-.4.1h.2m.3-.3.2-.1-.2.1M2.7 54c.2 0 0 .2 0 .1.1 0 0 0 0 0m.4 0c.1-.2.2-.1.2 0v.1l-.2.4c-.1 0 0 0 0 0-.1 0 0 0 0 .2-.1.1 0 .2 0 .2L3 55c-.1 0 0 0 0 .1h-.1l.2-1m3.6 1.2L9 53.9c.6-.3-.8.6-.8.6l-1.6 1.2c-.6.4-.5.2-.3 0 .2 0 .3-.1 0 0l-.2.1s0-.1 0 0l.2-.1.5-.4m-4-1.5h.1m0-.2c.2-.3.1 0 .1 0m6.4 0h.1c.4-.3.2-.1 0 0l-.2.2v-.1ZM.5 55c-.1-.4 0-.8.2-1.2 0-.3.2-.5 0 0A6.9 6.9 0 0 0 .6 55c-.1 0 0 0 0 0v-.1m2.4-1.6H3Zm0 0c.1-.2.2-.2.1 0m-.5-.2v.1-.1M.9 53v.2-.1Zm9 0-.1.2.2-.2Zm-6.6.2a16 16 0 0 1 .4-.8c-.1.2 0 .5-.2.6v.3c-.2 0-.2.2-.2.3l-.1.1.1-.3v-.2m.8-1.7Zm-1.8 1.7c0-.4.2-.8.4-1.2l.4-1c0 .4-.2.8-.4 1.2 0 0-.2.8-.3.7v.2m.8-2.3s-.2 0 0 0m-1.5-.7c.1-.4.1-.4 0 0l-.2.7.2-.7m.6.1.1-.4c.1-.4 0-.1 0 .2v.3-.1M7 48.6l1.2-.5h.2V48h.1a11.5 11.5 0 0 1-2.1 1l.6-.4m1.6-.6h.1-.1m-3.7-.3c.4-.3 0 .1 0 .1-.1 0 0 0 0-.1Zm6.6-.6h-.3.3Zm-5.5 0c1.7-.7 1.9-.5 0 .2l-.2.1-.6.2.8-.4Zm1-1.5c0-.2 0-.1 0 0m-2-1c.2.3-.5 2-.7 2.4v.1c-.1-.2.6-2.3.7-2.5Zm.7-.1.2.2.1.3c0 .2 0 .4-.1.3 0-.9-.3-.3-.4.2l-.4 1.2c-.1 0 .2-1.5.6-2.2Zm-2 1.6c.1-.4.3-1.5.6-1.7.1.5-.3 1.9-.2 1.2 0-.3 0-.5-.1 0a14.7 14.7 0 0 1-.7 2l.4-1.5Zm1.5-1.9c.2-.1 2.2-1 .9-.3l-.8.4m4.1-1.6h.3l-.4.1h.1Zm-5.1-.2c.1 0 .3-.1.2 0l-.2.1m2.3-.9c1-.2-.5.2-.6.3h-.4l-.2.1 1.2-.4Zm6 0v-.1h.2c.1.1 0 0 0 0-.1 0 0 0 0 0a.2.2 0 0 1-.2 0Zm-.2-.2c.1.1 0 0 0 0-.4 0 .3.1.1.2H12.2a7.1 7.1 0 0 1-1.5.2l-.8.2-4.8 1.4c.7-.5 3.3-1 4.3-1.4l.2-.1.7-.2s0-.1 0 0h.6l.1-.2h.7c.3-.2.4-.1.5 0l.2-.2m.2 0c-.1 0 0-.2 0 0Zm0 0c.1-.1.1 0 .1 0Zm-1.9-.2h.3l-.5.1h-.2.4Zm-1.4-.1 1.2-.3h.7c1.3-.2.1.1-.3.2-1.1.1-2 .4-3 .6h-.6l2-.5m2.7-.7a.2.2 0 0 1 .2 0 .2.2 0 0 1 .1 0c0 .2 0 .3-.1.2h-.4c0-.1-.2-.2 0 0a3 3 0 0 0-.5 0h-.1c-1.4.2-2.8.8-4.2 1l.4-.2a25.8 25.8 0 0 1 4.3-1h.2m-1.4-.2h.3H10.5c-.1 0 0 0 0 0Zm-2.2-.1c-.8.2-.6.2-.5 0 .2 0 .3 0 0 0l-3 1c-.4.1-1.3.3-.4.2l-1.6.7c-1 .6.3.2.6 0l2.9-.8c1.5-.5-.2 0-.6 0a28.8 28.8 0 0 1 1.5-.3c1.2-.3 2.5-.8 3.8-1l1.4-.2-1.9.4-.8.2c-2.3.7-4.6 1.2-6.8 2.1-.5.3-.3.2-.2.2.1 0 .1 0 0 0-.2.3 0 .1.2.3-.1.2.2.2.5.1h.1c-.5.2-.2.2-.1.3.3.2-.4.7.5.4 0 0-.2 0 0 0 .7 0-.2 0-.2.5.2 0 .5-.5.1.5L2.4 48c-.2.7 0 .1 0-.1L2 49.2c-.3.4-.5.9-.6 1.4-.2.7-.1.3 0 0l-.3 1.2c-.4.7-1 2.5-1 3.3 0 .4 0 .6.4.9l1.9 1.3c1.2.7 1 1.2 2.9 1h.6l.9-.4c.6-.3-.4.1-.4.1l-.9.2 1-.4a12 12 0 0 0 3.2-2.2l-1.7 1 1-.8c1.3-.9 1.4-1.6 1.4-1.5-.8 1-1.6 1.4-2.5 2l-1.4.8c1.2-.6 2.2-1.4 3.2-2.3 1.2-1.2.3-.4-.3.2.7-.7 1.2-1.5 1.7-2.4l-.4.4-1 1c-.2.3-.3.2-.5.4L7.3 56s-1.1.7-.6.3c1-.8 2.1-1.6 3-2.5a6 6 0 0 0 1-1.4c.2-.2.6-1 .5-1.3a12.1 12.1 0 0 1-4 3.5c.9-.6 1.6-1.3 2.3-2 .4-.5.8-1 1-1.5.7-1-.3.2-.4.3a21.6 21.6 0 0 1-3.2 2.8l1.5-1.2a11 11 0 0 0 2.2-3A22 22 0 0 1 8 52.6c-.7.8-1.5 1.5-2.3 2l.7-.5.2-.2-1.8 1c-.5.3-.9.7-.7 0 .1-1.1-.2.4-.3.5-.2.2 0-.4 0-.4.3-1 0 0-.1.2 0 0 0 .3-.2.3 0-.2.6-1.9.5-2L3.6 55l-.3.6.4-1.5.2-.7c0-.2.1-.2 0-.2l.6-1.5c.2-.6.6-1.4.2-.2l-.8 2 .8-1.7.2-.5c0-.3.2-.5.3-.7 0-.2.6-.7.4-.2l-.5 1.3v.2L5 52v-.1c.1-.1.1 0 0 0l.1-.2c.3-.4.5-1 .7-1.5.3-.6.2-.4.6-.7.9-.5 1.8-1 2.7-1.3.5-.2 1.2-.7.3-.1l3-.6c2.6-.3-1.3-.2.4-.5H12a45.7 45.7 0 0 0-.9.1H11v.1h-.1c.1-.3.5-.3.8-.3h.4c.5 0 .3-.1.4-.2 0 0 .8-.2-.1-.4a25.8 25.8 0 0 0-7.1 2.3c-.2.1-1.1.6-.4.1 1.2-1 3.8-1.7 5.4-2.1.4-.1 2.3-.4 1-.5-.8 0 .9-.2.3-.3-1 0-2.8.7-4 1 1-.5 2-.9 3-1.1.2 0 .7 0 .6-.2-.2-.5-1.2-.3-1.6-.2-.4 0-.5 0-.2-.1l-1.3.3c0-.1.1-.4 0-.4-.7.2-.5.6-.8.7-.3-.2.4-.6 0-.7-.4 0-.7-.1-1-.4h-.1v-.1c0-.2-.3 0 0-.3 2-.8 5.6-2 7.7-1.8.4 0 1.4.7.8 0-.5-.5.2 0-.4-.6a7 7 0 0 1-.5-.7c-.5-.5-1.4-.5-1-.6.5 0-.8 0 0 0h.4c.1-.2-.3-.5-.4-.6-.1-.1.4-.2 0-.3h-.2s.2 0 0 0a2 2 0 0 0-.8-.2c-1.1 0-2.3.2-3.4.6Zm-5.6 1.3c2.6-1.2 5.2-1.8 8.7-2.3-1 0-7.3.9-8.7 2.4"/><path fill="url(#b)" d="M12.6 62.7v-.1Zm-.9-1v-.3.2Zm.6-5.8c.1 0 0 .2 0 0Zm1.6-2c-.2 0 0 .2 0 0Zm-.2-.3v.1h-.2c0 .1.1 0 .2 0h.1v.1-.1l-.1-.1m6 .1-.1-.2v.2m-5.8-.2-.2-.1s0 .2.2.1Zm5.7 0c.1 0 0 0 0 0v-.1m0-.1s0 .1 0 0l-.1-.1m-5.8 0v.1-.2.1Zm5.1-.4Zm.3 0c0 .1 0 0 0 0Zm0-.3.1.2v.2c.2.4.2 0 .2 0l-.2-.3-.1-.2v.1m-.3-.4c0 .2 0 .1 0 0m1.2.2c.1-.1 0-.2 0-.2v.2m-1-.1c0 .1.1 0 0 0m.8-.5Zm-1.3 0c0 .1 0 0 0 0Zm-.4 0v-.1m0-.2c-.1.1 0 0 0 0 .1.1.1 0 0 0M18.2 51.2c0 .1.1 0 0 0Zm-.4-.1s-.2 0 0 0h.2c.2.1 0 0 0 0l-.1-.2v.1m-.4-.1c0 .1.2 0 0 0Zm0-.3c0 .1-.2 0 0 0Zm-.4-.8h.1-.1Zm0-.2v.1h.1c.1 0 0 0 0 0 0-.1 0 0 0 0v-.1m0-.2c-.1 0-.1 0 0 0m0 0c0-.1 0 0 0 0v-.1M17 49H17c0 .2.2 0 .2 0h-.1ZM16.8 48.8c.2 0 0 .1 0 .2.2 0 0 .1.1 0 .1-.3 0-.2 0-.2h-.1m0-.2c-.2.1.1.1 0 0Zm0 0h-.1m.2 0v-.1m.2 0H17v.1h.1c.1-.1 0-.2 0-.2v.1Zm1.3 0v.2c.3.2 0-.2 0-.2m-1.6 0v-.1m1.4-.2h.1v-.1c-.1 0-.1 0 0 0m-1.5 0v.1c-.2 0-.1 0 0 0-.1.1.2 0 .1-.2v.1m-.2 0h.1V48m-.1-.2c-.2.2 0 0 0 0v.1h.1l-.1-.1m5.4 0Zm-5.5-.1c-.1 0 0 0 0 0Zm1.3-.3.2.2-.1-.2m-1.7 0h.1m6 0v.2l-.3.3-.2.2c-.2 0 .1 0-.1.2-.1 0 0 .2-.2.2 0 0-.2.4-.4.4-.1 0 0 0 0 .2-.2.3-.2.3-.3.2v.2c.3.1 0 0 .2-.3.3-.2.1-.2.2-.3.2 0 .3-.1.3-.3v.2c.2-.1.6-.8.6-.8.2-.1 0-.2 0-.2h.2s-.1 0 0 0v-.2l.2-.2-.1.1m-1.3.8c.2.2.8-1 .8-1-.1 0-.9.8-.7 1m-4.9-.9c-.1 0 .2 0 0 0Zm.4 0c-.1.1 0 0 0 0m-.6-.1c.1 0 0 0 0 0m0-.2s.2.1 0 0Zm1.7.2v-.2.2Zm0-.3c0 .2 0 0 0 0Zm4.5.4c-.1.2-.2.3 0 0l.5-.5-.5.5Zm1-.8c-.1 0-.1.1 0 .1m-7.4-.1c0 .1.1 0 0 0Zm.2-.2c0 .2 0 .1 0 0m-.2 0s.1 0 0 0ZM16 46.2c0 .1.3.1 0 0Zm7.8 0v.1l-.1.1v.1h-.1l.3-.3m-6 0Zm-2 0h.1ZM24 46c-.1 0-.1 0 0 0h-.1v.1h.1v-.2m-6.2 0v.1c0-.1 0 0 0 0m-1.7-.1v.1c-.1.1 0 0 0 0 .2.3 0 0 0 0v-.2m0 0s.1 0 0 0Zm-.2 0c0 .2.1.1.1.1-.1 0 0 0 0 0v-.2H16m0-.1s.2 0 0 0Zm0-.5s-.1.2 0 .1c.1 0 0 .2 0 .2-.2-.1-.1 0 0 0 0 0 0 .1 0 0v-.1c.1 0 .1.1.1 0 .1 0 .1 0 0-.1.1 0 0 0 0 0h-.1m0-.2c0 .1 0 .1 0 0m0-.3c0 .1 0 0 0 0Zm-.2-.1Zm.1-.2v.1c.1 0 0-.2 0-.2m3.7-.2s.1 0 0 0m-3.8 0c.1 0 .1 0 0 0m0 0h-.1V44m.5-.1-.1.1h.2v-.2c-.1 0-.1 0 0 0m-.4 0v.1-.2m-.3 0s.1 0 0 0v-.1m.1 0Zm-.1-.1ZM16.1 43.2s-.1 0 0 0a.1.1 0 0 1-.1.1s.1 0 0-.1m-4.4 16.6v1-1Zm1.8-1s.1-.1.1 0l-.1.3v-.3Zm-1.8-1.3v-.1l-.1.3v-.2m.6-1v.1c-.1.2 0 .2 0 .2-.4 0 0-.4 0-.2Zm0-.2h.1m9.3 0c-.2 0-.3-.1.1 0h.3c.1 0 .1 0 0 0h-.4m-10 0c-.2-.2.1-.2 0 0m9.9 0c-.2 0-.3 0-.4-.2l.3.2.3.1h-.2Zm-9-.4v-.2.3m2.4-.2-.2.3a29 29 0 0 0-2.2 3.5l.8-1.7.8-1.2.5-.8.1-.1c0-.1.1 0 .1 0m-2.2-.2s0-.3.2-.1c0 .1 0 0 0 0h-.1l-.1.1Zm-.3-.2H12c-.2 0 .1-.2 0 0Zm.5 0c-.3-.1.2-.3.1-.2-.2.1 0 .2-.1.2m-.6-.3H12c-.1-.3.3 0 .1.1H12s0-.2 0 0v-.1m7.6-.5.7.8.2.2-.9-1m-6.8 0h.1c0 .1 0 0 0 0v.1c-.3.2 0 .5 0 .1.2.1.2.1.1 0 .1.2.1.1.1 0v.1l-.1.1c0 .2-.1 0-.2 0h-.1l-.4.4v.1l-.4.5-.3.8-.5 1c-.6 2-.2.5 0-.3l.2-.5c0-.2.6-1 .4-1-.2-.1.2-.7 0-.3 0 .6.3-.2.4-.2 0 .2.2-.2.2-.2V55l-.1-.2s0 .1.1 0c.1-.5.2 0 0 .2 0 0 0 .3.1.2.2-.3 0-.1 0-.1v-.2c.2 0 .3 0 .3-.2h.1m.3 0v-.2c.2.1.2 0 0 0l.2.1c.1 0 .1.1 0 .1H13m8.5-.4c.2.2 1.3 1 1.2 1.2-.2 0-1.3-1.1-1.2-1.2Zm-8.4 0c0-.2-.2-.2-.2-.3 0-.3.3.3.3.3.2 0 .2.2 0 .2s0-.2 0-.2h-.2v.1h-.3.1v-.2h.2c0-.1 0 0 0 0h.1m.1-.1h.1c.3-.3.2-.1.2 0-.2 0 0 0 0 .2l-.3-.2m-.1-.2s0 .1 0 0H13c0 .2-.1.2-.2.2v.2l-.1-.1-.2.1.1.3h.1v.1c-.2-.3-.1 0-.2 0-.2-.4.2-.6.4-.7.1-.2.3-.2.3 0m0 0c0-.3.2-.3.2-.3.1.2-.3.1 0 .3h-.1Zm7.7-.3c-.2-.3.3 0 .1.2v-.2Zm-7-.1c0-.1.3 0 .1 0Zm5.1-.2c.1 0 .1.1 0 .1Zm1.5-.3v.1c-.1 0 0 0 0 0m.5-.1s0-.1 0 0h.1m2.9 1.7L22.2 53l2.3 2.1h.1l-.6-.3ZM13.7 53s0-.2 0 0h.2v.1l-.2-.1Zm6.5-.2c.1 0 0 0 0 0 .2.1 0 .1 0 .1s-.1 0 0 0m-6 .2v-.3c-.1-.1.1 0 .1 0v.4c-.1 0-.2-.1 0 0v.2c-.1 0-.2-.1-.2 0v-.3c0-.1 0-.1 0 0h.2-.1m6.6-.5a.1.1 0 0 1-.1 0s0-.1 0 0Zm-6.2 0s.1-.1 0 0c-.2.3 0 .3 0 .2-.1 0-.1 0 0 0l.2-.2c.1-.2 0 0 0 0 0 .2-.2.3-.2.3.2 0-.1 0-.2.2s0 0 0-.2v-.3h.2m-.4-.1h-.1a.1.1 0 0 0 0 .2.1.1 0 0 0 .1 0h.1-.2l-.1.1v.2l-.2.3s-.2-.1-.1 0l.2.2v.1c0 .2 0 .5-.2.4l-.2-.2c0 .2-.2-.2 0-.2v-.2h-.2c.2-.6.3-.3.2-.4.2 0 .1.2.2.2.3 0 0-.3.1-.3l.1-.1.2-.3m3 .2c.2-.3.5-.6.2-.1l-.2.3-.3.4.3-.6Zm3.3-.3c-.2-.3 0-.3 0 0Zm1-.5v.1c-.1 0 0-.2 0-.1Zm-2.6-.3v.1h-.1m1.3 0c0-.3.3.3.3.3l-.3-.4m-1 .1c-.2-.7.6 1 .6 1l1 1.7a15 15 0 0 1-1.6-2.7Zm-4.5 3.4 1.5-2.3c.3-.4 1.6-2.3.6-.6l-.3.4v.1a44.8 44.8 0 0 0-2.7 4c-.7 1-1.1 2-1.7 3 .5-1.6 1.7-3.2 2.6-4.6M19.2 51.4c0-.2 0-.1 0 0l1 1.8.9 1.5c-.5-.4-1.8-2.7-2-3.3Zm-3 .6c.2 0 0 0 0 0 .3-.2.2-.4.6-.7-.2.4-.4.8-.8 1.1l.3-.4m4.8.3-.3-.5c-.7-1.4.2.1.4.5.5.9 1 1.2 1.6 2a6.4 6.4 0 0 1-1.7-2m-1.2-1 .1.2-.1-.1ZM18.2 51v.1-.1M19.6 50.9v-.2.1c.1.1.1.2 0 .2Zm-.2-.1c-.1-.1 0-.2 0-.2v.2m-.1-.2c.1 0 0 0 0 0m-.1.1s0-.2 0 0h.1s.2 0 .2.2v.2c.1-.2.1 0 0 .1.1 0 .1.1.1 0 .1-.1.1.2 0 .2l.2.2.1.1.1.2c.1.1 0 0 0 .1l.1.3c.1 0 .1 0 0 .1l.4.6.2.2c-.2.1.1 0 0 .2 0 .1 0 0 0 0l-.2-.2c0-.3-.1-.2-.2-.1V53c.1-.2-.2-.5-.2-.3 0 .3-.5-.8-.5-.9-.5-1-.2-.6-.2-.9 0 .1-.1.2-.1 0v-.1h-.1ZM19.4 50.4l.1.2s-.1-.2 0-.2m.8 0h.1c.3 0-.1.2 0 0h-.1m-1.4-.2h.1v.1c0 .2 0 0 0 0h-.1m.3 0c0-.2.2 0 .2 0v.1a.7.7 0 0 1-.3-.2m1 .2V50v.1c.3.1 0 .2.1.2 0 0 .1 0 0 0m-3.1-.3s-.1 0 0 0m.5 0c0-.1.1 0 .1 0 .2.2 0 .2.1.4h-.2.2c0-.1-.1-.1-.2 0 0-.1-.2-.2 0-.1.1-.2 0-.2.1 0V50m2.3 0h.1-.1m-1.2-.3v.1c0 .2 0 .1-.1 0v-.1m-1.4 0 .1-.1c.1 0 .1 0 0 0m2.4.1v-.3c-.1 0 0 0 0 0v.2h.1v.2h.1v.1l-.2-.2m-.2-.3h.1m-4 .3.3-.3c.2-.2.2 0 0 .2l-1.7 2 1.5-1.9m2.6-.5v.1Zm1.2 0c.1 0-.1 0 0 0 0-.1 0 0 0 0m-2.5 0V49c.1.1.1 0 .1 0v.1H17m2.4-.2s-.2-.1-.2-.3l.1.2c.1 0 0 0 0 0s0-.1.1 0c.1 0 0 0 0 0v.2m-.1-.5Zm-.2-.4c.2 0 0 0 0 0M15.4 47.4l.1.2v-.2m2.5-.1v.1-.1m-2.5-.2-.1-.4.5 1.8-.4-1.2V47m3.2-.3s0-.1 0 0m0 .7V47s-.1 0 0 0v-.2a.1.1 0 0 1-.1 0v-.2.1s.1.1 0 .2h.1l.1.2v.1h.1a.2.2 0 0 0 0 .1c0 .2 0 0 0 0l.1.2c.1.1 0 0 0 .1l.1.2c-.2-.2 0 0 0 0l.1.2v.1c0 .2.1.2.2.2V48.7l-.2-.3c.1 0 0 0 0-.2l-.2-.2c.2 0 0 0 0-.1 0 0-.1 0 0-.2 0 0-.1 0 0 0h-.1v-.2m-.3-1h.1Zm-1.3.6c-.1 0-.3-1.3 0-.2v.2m1.2-.7c.1.1.1.1 0 0v.1M18.5 45.6c-.1 0-.1-.1 0-.1m-.8 0Zm.6 0 .1.3c0 .1 0 .2.1.1v.2c.1 0 0 .1 0 0a.4.4 0 0 1-.2-.3v-.2m4.6-.1a.6.6 0 0 0 .1-.2c.1 0 .1 0 0 0v.2h-.1m-1.3-.2h.1Zm-5.3 0Zm-.2 0h.1m7 0v-.1m-4.6 0Zm-.3 0h.1Zm2.1 0c0-.1 0-.1 0 0m-2.3-.1s0-.1 0 0v.1m-.5-.2V45v.1Zm5.7.1.2-.2-.2.2m-7-.1c-.1 0-.1-.1 0-.1v.1m2-.1v-.1.1m-.7-.2Zm.6-.1Zm5.4 0 .1-.1c.1 0 .2 0 0 0v.2h-.1v.1-.1m-5.2-.2c0-.1 0-.2.1 0l.1.3v.1-.1h-.1v-.2m-2.3-.2v.1-.1Zm2 0v.1m-.1.3v-.1H18v-.5.6m.2-.6v-.1h.1v.1M18 44h.1Zm-.2 0v.1m.4-.1s0-.1 0 0m.3 0V44m3.5.3.1-.1.2-.2-.1.1v.1h-.1l-.1.2m-4-.4v-.1.1m3.4-.2c.1-.1.1-.2.1 0l-.2.1v.1l-.1.2H21v.2l-.2.2v.1l-.1.1-.1.1s-.1 0 0 0l.4-.6.2-.2.1-.2m-3.7-.3s.1.1 0 .2l.1.2V43.7m0-.1v-.1Zm4.2-.3v.2c-.1 0 0-.2 0-.2m0-.1c.2 0 0-.1.1 0 .1 0 0 0 0 0s-.1 0 0 0m.4.6c0-.2.2-.3.2-.3.2-.5.6-.5.2-.2 0 .2-.2.2-.2.3l-.2.2m-7.2-.7ZM17.7 43.4v-.5.5m0-.6v-.1.1m4.8 0c.3-.4 0 0 0 0l-.1.1-.1.2c0-.1 0-.2.2-.3Zm1-.1v-.1.1Zm-6.5 0a.2.2 0 0 1 0-.1v.2l.1.3v.5l.1.4v.2c0 .3.1.4.2.4 0 0 .1.1 0 .1.1 0 0 0 0 0v.4s.1.1.1 0v.2h.1v-.1.5c.1 0 .1 0 0 0v.1l.1.1.1.3v.1a.1.1 0 0 1 0 .1v.2h.2v.1c-.2 0 0 .3 0 .5l.2.2c-.3 0 0 0 0 0-.2.1.2.2 0 .4h.1c-.1.1 0 0 .1.3 0 .2.1.2.1.1v.2l.1.3.2.3v.1c.2 0 0 .2.1.2s0 0 0 .1a.1.1 0 0 1 0 .2c.2 0 .2.2.2.2.4.5.1.3 0 .3l-.1-.5c0-.1 0-.1 0 0h-.2c0-.1 0 .2 0 0h-.2v-.1h.1v-.2h.1c.1.2 0 0 0 0-.3-.1 0-.2-.2-.3h-.2c0-.2-.1-.2 0-.2 0 0-.1 0 0 0-.1 0-.1-.1 0-.2 0 0-.4 0 0-.2l-.1-.1c-.1.2 0 0-.1 0-.1.2-.1 0-.1 0 .1 0 0-.2 0-.2-.2-.2 0-.3 0-.3-.1.1 0 0 0 0h-.2v-.2c-.1-.2 0-.2 0-.2l-.2-.4c0-.1.1-.1 0-.1 0 0 0-.1 0 0-.1 0 0-.1 0-.1s.1-.1 0-.1c-.2 0 0 0 0-.1h-.1c0-.4-.2-.2-.2-.6v-.7h-.1V44.6h-.1v-.4L17 44l-.1-1v-.2m5.9-.5c0-.2.2-.3.3-.4a3 3 0 0 1-.5.7l.2-.3Zm-4.9.3v-.8.2l.1.4v.2a1.7 1.7 0 0 0 .1.4v.5l.1.1V44l.1.4v.1c0 .1 0 .1 0 0v-.1a.2.2 0 0 1 0-.2l-.1-.2s-.1-.1 0-.1h-.1c0-.1 0-.1 0 0V43.4c-.1 0 0 0 0 0v-.2c-.1 0-.1.1 0 .2v.1H18V42.6M15 45l-.1-.7-.2-.8v-.5l-.3-1.6c0-1 .4 2 .4 2v.5l.1.3v.2l.1.3.5 1.8-.5-1.5m8.4-3.5.3-.2-.2.3-.3.2.2-.3Zm-7.7-.3V41.6v-.3M18 41v.4c-.1-.2 0-1 0-.4Zm-3.5 0c0-.5 0-.3 0 0Zm.9 1c-.2-.3-.2-.8-.2-1.3 0-.2 0-.2.2-.1.1.1 0 1.5.2 2 .1 0 0 .2 0 .1.2 0 .1 0 0 0l.1.1h.1c0 .1 0 .1 0 0 0-.2 0-.1.1 0V43.4h-.1c0 .1 0 .1 0 0v.4s.1 0 0 0l.1-.2.1-.1v.5h.1v.2c0-.1 0-.1-.1 0V44c-.1 0-.1 0 0 0h-.1a.1.1 0 0 1 .1.1s0 .1 0 0v.1l.1.1v.2c0-.1-.1-.1 0 0-.1 0 0 .2 0 .2 0-.1 0-.1 0 0v.6h.1v.2h.1v.1s0 .1 0 0v.2l.1.3c0 .1.1.2 0 .2 0 .1 0 .1 0 0l.1.1v.2l.1.2v.2l.1.1.1.2a.1.1 0 0 1 0 .2v.2c0 .1 0 .3.1.2 0-.1 0 0 0 0 .1.1.1.1 0 .1l.2.2s-.1.1 0 .1c0 0 .2.3 0 .3 0 0 0 .1 0 0l.2.2c-.2.1 0 0-.1 0-.1-.1 0 0 0 0-.2.2-.1.1 0 .1 0 .2.1.2.2.2 0 0 .1.2 0 0v.2c-.1-.2-.1 0-.1 0v.3h.3c.1 0 .1 0 0 0h-.1l-.1.1c.2.2.1 0 .1 0 .1 0 0 .1 0 .1.2 0 0 .2 0 .1a.2.2 0 0 1 .2 0v.1h-.1c0 .1 0 .2 0 0h-.2s0 .1 0 0c0-.2-.2-.2 0 0v.2c.1-.1.1 0 .2 0l-.2.2c0-.1 0 0 0 0a.1.1 0 0 0 .1 0h.2c.3 0 0 .3 0 .3.2 0 0 0 0 .1s.2 0 .2 0v-.2c0-.2 0 0 0 0 .3.3.2.2.2.4.2 0 0-.3 0-.3.3 0 0 .5 0 .5.3-.2.4 0 .3 0l-.2.1c-.2 0 0 0 0 .1l-.1.3c.1 0 0 0 0 .1H18.5v.1c0 .2 0 0 0 0v-.1h-.1v-.1c.2 0 .1 0 0 0v-.2c.1 0 .1 0 0 0 0-.1.2 0 .2 0l.1.3.2.1c0 .2.1.1.1 0 0 .2 0 0 0 0h-.1c0-.4.5.6.5.6l.1.2.3.6.2.3a8.8 8.8 0 0 0 1.4 1.9c-.5-.1-1.3-1.4-1.6-1.9l.6 1c.6.9.1.3 0 0-.2 0-.6-.7-.4-.3v.1c.3.6 1.5 1.3 1.5 1.4-.4-.3-.3-.2-.2 0h.2c.2 0 .3.2.2.2-.5.1-1.7-1.4-2-1.8a3 3 0 0 0-.3-.5c0-.2-.3-.4-.3-.5l-.1-.2h-.1l-.2-.2v-.3h-.1v-.1h-.1c.1 0 0-.1 0-.1h-.1v-.1c0-.2 0-.1 0 0 0-.2 0-.1-.1-.1L18 52l-.1-.3c-.2-.3 0-.5 0-.5.2.1.2 0 .1 0a.1.1 0 0 0-.2 0l-.1.1v-.2s0 .1-.1 0c-.2 0 0 0 0-.1-.3-.2-.1-.2-.1-.3-.2 0-.2-.3-.3-.3l-.2-.6s-.1 0 0 0c0-.2-.2-.2-.2-.2.1 0 .1 0 0 0v-.2l-.2-.3h.1a.6.6 0 0 1-.2-.4v-.1c-.2-.1 0-.1-.1-.3-.1 0 .1-.2 0-.1-.2 0 0-.1-.1-.2-.2-.1-.2-.3-.2-.3l-.1-.4-.1-.3V47l-.1-.2-.1-.4v-.1c-.2 0 0 0-.1-.2-.1-.1 0-.2 0-.2l-.2-.8V44.8h-.1v-.4l-.2-1.2-.2-1.8.2 1.5v.5l.1-.1V43l.1-.4c-.1-.3.1-.2-.1-.5-.1 0 0 0 0 0m9-1.2-.4.4c0-.2.2-.3.3-.4Zm-9.7 0c-.2-.4.3-1.5 0 0m2.3-1c0-.5.3-.2 0 0Zm.3 0v.2c-.1-.4.2-.8 0-.2Zm-.5-.6c-.1.1-.1.2-.1 0s-.2 0-.5.2l-.3.3h-.1c-.4.1-.4 1-.4.5s0-.3 0 0c0 0 0 .2-.1.1-.3-.3.1-1 0-.8-.3.7-.3.6-.3.5l-.1-.1c-.1.1-.2 0-.2 0h-.2l.3-.4c.2-.1-.2-.1-.3.2-.4 1.3.1 4 .4 5.3 0 .4.2.8.3 1.1 0 .4.2.8.4 1.2 0 .3 0 0 .2.5.3.9.4.5-.3 1.4l.2-.2c.3-.2.5-.4-.3.5a28.6 28.6 0 0 0-2 2.5l-1.6 2.4a5.7 5.7 0 0 0-1.1 4.5c.1 1 0 .2.1 0 0 .2 0 1.5.2 1.1l.3.7.1.2v-.1l.2.6c0-.4 0-.2.1 0l.3.8c-.2-.8 0-.3.2 0 .3.8.3.5 0 0V62l.1.3.3.4a2 2 0 0 1 0-1.3c0-.4.6-2 .9-2.2 0 .2-.1.3 0 0l.4-.7 1.6-2.5s2-3 2.3-3.2v.3l-.1.1v.1a49 49 0 0 0-2.5 3.4c-.2.4-.1.2 0 0 .1 0 .2-.2.3-.1l.5-.6 1-1.6 1-1.2.2.2.2.2c0 .2.1 0 0 .2 0 0 .2 0 .2.2 0 0 .1 0 0 0s.2 0 .1.2l.1.2.5.5.4.5c-.2-.3 0 0 0 0l.4.4c.4.3-.1-.2-.1-.2.2 0 .1 0 0 0 .3 0 0-.2-.2-.3-.1-.4 0-.1 0-.1l-.2-.3-.2-.3-.9-1.6v-.2c-.2-.3-.1-.3 0 0l.9 1.5c0 .1.1.1 0 .1l.1.1a4.1 4.1 0 0 0 .5.8l.4.5c.4.4.8.7 1.4.8.2 0 2 0 .7-.1 1.2-.2 2.3-.7 3.2-1.5-1.6 0-2.5-1.3-3.5-2.5-.4-.4-.9-1-.1-.3L20.8 50v-.4h-.2l.1-.5s0-.2.2-.3c.1 0 0 0 0 0 .3 0 0-.3 0-.3v.3c-.2.1-.2 0-.2 0-.2 0 0 .2-.1.2 0-.1 0 0 0 0-.1.2-.1.1-.2 0v-.1l.2-.1c0-.4.2-.3.2-.4l.7-.8 1.3-1.5.3-.3.2-.2.3-.3.2-.1h-.1c0 .1-.1.2 0 .2l-.2.1c0 .1 0 0 0 0v.1s0 .1 0 0c-.1 0-.1 0 0 0v.1c-.1 0-.2 0-.1.1h-.1l-.1.2-.1.1-.1.2-.2.3s0-.2.2-.2l.3-.4.2-.2.1-.1.3-.3h-.1v.2l.1-.1.2-.2h.1l.2-.3 2.2-2c.3-.2.5-.3.5-.7-.1-1.1-1.1.1-1.5.5 0 0-1.7 1.8-1.8 1.7l2.6-2.5c.5-.6.3-.6 0-.8.3-.5.2-.3-.3-.2l.1-.2c-.8.3-1.3.8-1.9 1.4-.1.2-1 1.3-1.1 1.2-.2.5-.5.5-.7.9h-.1v.2c-.2 0-.3.2-.3.3H22c-.1.1-.1.1 0 .1l-.1.1-.1.1-.1.1V45h.1V45l.1-.2h.1s0-.1 0 0c0-.2.1-.3.2-.3l.3-.4.6-.7.4-.4c.2-.2 1.2-1.4.3-.5l-.7.7c.1 0 .2 0-.1.2.2 0 0 0 0 0l-.1.1-.2.2c-.6.5.3-.4.4-.5l2-2c.5-.3.8-.4.3-.4 0 0 .2-.3 0-.2-.3 0-.4.3-.5.4l-.3.2a5 5 0 0 0-.5.7l-.2.1v.1l-.5.5c-.2.3-.7.8-.2 0 .1-.1.4-.3.2-.3 0 0 .4-.2.6-.5l.1-.2h.1c.3-.5.3-.2.5-.6.1-.2.5-.3.5-.7h-.6.1c0-.3.3-.3.1-.3-.3 0-.2-.4-.5 0 0-.4 0-.2-.4-.2.4-.2.1-.1 0 0-.4.1-.1 0-.4.4-1.1 1-2.2 2-3.1 3.2l-.2.2-.5.5-.3.2v-.1a.4.4 0 0 1-.1.4h-.1v-.2s-.1 0 0 0c-.1 0 0 0 0 0v-.1l-.1-.1v-.5H19V43.3h-.1v-.1l-.1-.3v-.2h-.1v.6c.1 0 0 .1 0 .1l.1.2V44l.1.2c.1.5.2.6.1.7 0 0-.2-.1-.1-.2v-.2l-.1-.1V44h-.1V43.6l-.1-.2V43l-.1-.2V42s-.1 0 0 0V42c-.1 0-.1 0 0-.1h-.1v-1.7c.1-.4.3-.4.1-.4h-.2c-.3 0-.4 0-.5.3 0-.2 0-.3.2-.4.3 0 .1-.2 0-.2-.5 0-.3 0-.3.3s-.2.2-.2.5l.1 1.1h.1c-.2 0 0 .2 0 .2s-.2 0 0 0v.5s-.1 0 0 .1c0 .1 0 .1 0 0V42.6c-.1 0-.1 0 0 0 0 .1 0 .1 0 0v1.1l.2 1v.4l.1.2v.2l.1.2v.2c.1.3.2.3 0 .4v-.5a6 6 0 0 1-.3-.6l-.1-.7v-.3l-.1-.3v-.1a6.3 6.3 0 0 1-.2-.9l-.1-1v-.2c-.1-.5 0-.4 0-.4V41c-.2-.4 0-1 0-.6a10.7 10.7 0 0 0 .2 1.7l-.1-1.5c0-.2.2-.8 0-.4-.2.2.1-.8.1-.8-1 .2-.2-.3-.4-.3l-.4.1"/><path fill="url(#c)" d="M29.9 53.8c0 .1.1 0 .1 0v-.1h-.1m.4-1.3s.1.1 0 0Zm0 0h.1m0-.6c0 .3 0 .2 0 0m0-.4h.1m-2.8 0v-.1m3-.5Zm.2-.5ZM29.4 50v.1c.1 0 .1 0 0 0l.1-.1m1.7 0 .1-.1h-.1M31.4 49.4V49v.1m0-.1h.1Zm-.6-.2Zm0-.4h.1m.8-.1s0 .1 0 0M31 48v.1a.1.1 0 0 0 .1 0V48m.8-.2h.1m0 0h.1m.3-.6v.1-.2m.4-.7v.2-.1.1h.1a.4.4 0 0 1 0-.2h-.1m-4.6 0v-.2s-.1.2 0 .2Zm4.7-.2Zm-1.6-.2v.2h-.1l-.2.4-1.2 2.6-.2.5.3-.6.1-.3.2-.3.1-.4.3-.6.5-1a4.4 4.4 0 0 0 .3-.5m1.9-.1Zm-.2 0c.1 0 0 0 0 0m-.2-.1.1.1v-.1s-.1 0 0 0m1 0v.1c0 .1 0 .1.1 0v-.2.1M33.2 45.7v-.1m-3.8-.1c-.2 0-.4.2-.5.3-.3.2-.6.6-.1.2l.6-.5M33.5 45.2l-.1.2h-.1v.1c0 .1 0 .1 0 0l.1-.1v-.1h.1m-.9-.2c0 .1 0 .1 0 0M33.8 44.8h.1-.1ZM34.6 44.7Zm-3-2.1s0 .1 0 0m1.3-.1h-.1.2-.1m-1.1 0h.1a.1.1 0 0 0-.1 0M33.7 41.7Zm1 0Zm-.3-.2v.1m.9 0c0 .1 0 0 0 0h.1v-.1m-.7 0s.1 0 0 0m.4 0Zm.1 0v-.1m1 0H36v.1c.1 0 .1-.1 0 0v-.1m.3 0h.1v-.1m-1.2 0c0 .1 0 .1 0 0Zm1.6-.1h-.1s-.1 0 0 0c0 .1.2 0 .2 0M31.6 41c.1.1 0 .1 0 0Zm8.7-.5c.2.1.2 0 0 0Zm0 0v-.1m-2.6-.7H37.4c0 .1 0 0 0 0h-.1s0 .1-.1 0H37l-.2.1c0 .1 0 .1 0 0h-.2s0 .1-.1 0l-.1.2v-.1H36.1s0 .1 0 0H36c-.2 0-.3.1-.3.2h.5a3 3 0 0 0 .6-.2l.3-.1h.8v-.1h-.1m1.7 0c.1 0 .1 0 0-.1m-1.1-.2h-.2.4-.2ZM29.7 51.6v-.1m.3-1v-.1h.1v.1M30 49.8c.1 0 .1 0 0 0Zm.3 0s0-.1 0 0m.9-.2c.1 0 0 0 0 0m-2.8 0v.1Zm3-.2s-.2 0 0 0m-3 0h.1m0-.2h.1m0-.2c0-.1 0-.1 0 0M32.1 48Zm0-.1s.1 0 0 0v-.2h.1v.2c-.1 0-.1 0 0 0m-1.1 0v-.2.2m1.2-.2v.1m0-.2h.1M32.3 47.6v-.1h.1-.1m.1-.3h.1v.1m-1.2 0s0-.1 0 0m1.4-.3Zm-1.3 0 .2-.3v.1l-.2.2m2.1-.1v-.2h.1v.2c-.1 0-.1 0 0 0m-.6-.6c.1 0 0 0 0 0m-.5-.4h.1m-4.5-.4s.2-.2 0 0l-.1.1Zm6.2-.6Zm-1.3-.1v-.1c.1 0 .1 0 0 0v.2l-.1.1a.2.2 0 0 1 0 .2h-.1s-.1 0 0 0v.2s-.1 0 0 0c0-.1 0-.1-.1 0l-.1.3c0 .1 0 .1-.1 0v.2h-.2v.2l-.1.1V46.5H32l-.1.2v.1l-.1.1v.2h-.1v.1l-.1.2-.1.2h-.1v.1c0 .1 0 .1 0 0v.2l-.2.1V48.3l-.1.2-.1.1v.2l-.1.2h-.1c-.1.1-.1.1 0 0v.2h-.2v.1c.2 0 .2 0 0 0v.1c-.2 0-.1 0 0 0l-.1.1v.1h-.1v-.2l.1-.2V49h.1v-.2l.1-.1v-.2h.1c0-.2.1-.3.2-.3 0-.1 0-.1 0 0H31V48h.1V48c0-.1.1-.1.1 0v-.1l.1-.1v-.1h.1v-.2a.1.1 0 0 1 .2-.1V47l.1-.1.1-.2s0-.1.1 0v-.1l.1-.1v-.2l.1-.2c.1 0 .1 0 0 0l.1-.1v-.2l.2-.1v-.1l.2-.2a1 1 0 0 1 .1-.2v-.1l.1-.2h.1v-.2h.2m.2-.1s.1 0 0 0m0-.2Zm-.2.1h.1c.1 0 0 0 0 0H33m-4.8-.2s-.1 0 0 0m4.9 0Zm-7.2 0h.1v.1s-.1 0 0 0Zm2.5 0c.1 0 0 0 0 0h-.1m6.4.2c0-.2.2-.3.3-.3 0 .1 0 0-.1 0v.2h-.1m-6.4-.2c.1 0 0 0 0 0 .1-.1.1 0 .1 0v.1m0-.2Zm6 0h.1Zm-8.3 0v.1s-.1 0 0-.1Zm2.4 0h.1c.1 0 0 .1 0 .1-.1 0 0 0 0 0Zm.6 0c0 .1-.1.1 0 0m5.7.3.1-.1.1-.2h.1v.1h-.1l-.2.3-.3.5-.3.4-.3.7-.2.3-.1.2V46.4l.1-.2c.1-.1.1-.1 0-.2 0-.1 0-.1 0 0v-.1h.1s0-.3.2-.4v-.1l.2-.4.1-.2v-.1h.1v-.1l.3-.2-.2.3-.2.4v.1l-.2.2.2-.2.2-.3v-.1s-.1.1 0 .2h-.1s-.1 0 0 0v-.2h.2a.2.2 0 0 0 .1-.3m.4-.4Zm-2.8 0V44m-2.9-.3h.1c0 .1 0 0 0 0v.2H29.3a.1.1 0 0 0-.1 0c0 .1 0 0 0 0h-.1c0 .2-.2.3-.3.3h-.1c-.1 0 0 0 0 0 .1 0 .1 0 0 0 0-.1 0-.2.1-.1h.2c0-.1 0-.2.1-.1l.3-.2h.1m0 .3a5.7 5.7 0 0 1 1-.4c.2-.1.3-.1.2 0a.2.2 0 0 1-.2 0h-.1l-.2.1-.2.1-.3.1-.3.2s-.1.1-.2 0h.2V44h.2m-2.8-.3.3-.2-.7.5.5-.4m2.5-.2v.1m-2.2 0c.1 0 .3-.1.2 0h-.2m3.6 0 .2-.1h-.2m-1.2 0v-.1m-.5 0c.1 0 0 0 0 0h.1v.1m3.7-.2v.2c-.1 0 0-.2 0-.2Zm-3.2 0h.2v.1h-.2M29.6 43.3h.1m-.2 0v.1m.6-.2h.1v.1s-.1 0 0-.1m-.2 0s0-.1 0 0h-.1m-.4 0c0-.1 0-.1 0 0m5.6 0h.1c0 .1 0 .1 0 0l-.4.5-.2.4h-.1v.2h-.1l-.1.2-.2.2v.1c0 .1 0 .1 0 0v.2s0 .1 0 0c-.1 0-.1 0 0 0v-.1H34c-.1 0-.1.1 0 .2h-.1l-.1.2h-.1v.2l-.2.1V46c-.1 0-.2 0-.1.1v.1h-.1v.1H33v.1c-.1.1 0 .2 0 .2l-.1.2-.2.1v-.1.2s0-.1-.1 0v-.2.3s.1 0 0 0h.1v.1c-.1 0-.1 0 0 0V47h-.1l-.1.1v.1a.1.1 0 0 0 0 .2h-.1s-.1 0 0 0v.2h-.1v-.1a.1.1 0 0 1 0 .1c-.1 0-.1 0 0 .1h-.1v.2c-.1 0-.1 0 0 0l-.1-.1v.2h-.2l.1.1h.1c.1 0 .1 0 0 0v.1h-.2l.1.2v.1c-.2.2 0 .2 0 .2v.1h-.1c-.3-.1-.1-.1 0-.1h-.1l.1-.2h-.1s0 .2-.1.1a.1.1 0 0 1 0 .1V49v-.1s.2-.1.2 0c0 .2 0 0 0 0v.2c-.2-.1-.1 0-.1 0-.3 0 0 0-.2.1v.2c0-.1.1 0 0 0-.2.2 0 .2 0 .2 0 .2-.2 0-.2 0-.2-.2 0 0 0 .1s0 .1 0 0v.5s0 .1-.1 0c0-.3 0 0 0 0l-.1.3c-.2 0 0 .1 0 .1-.2 0 0 0 0 .2-.3.2-.4 0-.2.2l-.2.5v.4c-.2 0-.2.3-.2.3h-.1v.3c-.1.1 0 0 0 .1l-.1.3v.3s0 .1-.1 0c-.3 0 0 0 0 .3-.2.2 0 .3-.1.4-.2.2 0 .3-.2.2v.1a.1.1 0 0 1 0 .1.1.1 0 0 1 0 .1v.1c-.2 0-.2 0-.2-.2l.1-.3.2-1.1.1-.3v-.1c0-.2 0-.4.2-.4s-.1 0 0-.1v-.1c.1 0 0-.1 0-.1v-.1c0-.1 0 0 0 0h.1l.1-.5a.2.2 0 0 1 0-.2c0 .1.1 0 0 0v-.2h.1v-.1l.1-.3s0-.1 0 0v-.1h.1V50l.1-.2v-.1l.1-.1s.1 0 0 0v-.1c.1 0 .1 0 0 0l.1-.2s.1 0 0 0l.1-.1V49l.2-.2v-.2a.1.1 0 0 0 0-.2h.1l.1-.3.1-.2c.1 0 0 0 0-.1l.1-.2c.1 0 0 0 0 0l.2-.2v-.2h.1V47s0-.1 0 0h.1V46.6h.2v-.2h.2v-.1c-.1 0-.1 0 0 0h-.1v-.1l.2-.2V46l.1-.2v-.1h.1c0 .1 0 .1 0 0v-.1h.2c.1.1.1 0 0 0v-.2h.1v-.1l.1-.1s0-.1.1 0H33.9h-.2l-.1-.1v-.2h.1l.1-.2.2-.2v.1c.1 0 .1 0 0 0 0 0 0-.2.1-.1.1 0 .1 0 0 0v-.1h.1v-.1l.2-.2h.2l.2-.4c.1 0 .1 0 0 0l.1-.1.1-.1.1-.1c0-.1 0-.1 0 0h.1v-.1m-4.5-.1V43m-4.6 0c.3-.3.4 0 0 .1Zm3.7 0V43m.9 0Zm-.3 0v-.1m.3 0h.1v.1h-.1.1m-.4-.2h-.1m1.7 0a.2.2 0 0 1 0 .1h-.2l-.2.1-.2.1H31l-.1.1v.1s-.1 0 0 0h-.2l-.2.1c0 .1 0 .1 0 0h-.1v.1h-.1a.2.2 0 0 1-.2.1H29.8h.1s0-.1 0 0h.1l.2-.2h.2v-.2l.1.1v-.1h-.1V43c-.1 0 0 0 0-.1l.1-.1v.1h.1c0 .1 0 .3.1.2a.3.3 0 0 1 .3 0V43s.2-.1.2 0V43h.3v-.1l.2-.1h.2m3.3 1.2.1-.1v-.1l.2-.2.3-.4c.1 0 .2 0 .2-.2l.4-.3c0 .1-.1.1 0 .1h-.1c0 .1 0 .1 0 0v.1l-.4.4-.2.3s0 .2-.2.2v.1l-.1.1c0-.2.2-.3.3-.4l.2-.2v-.1l-.3.3v.1l-.2.1v.2l-.2.1-.2.1V44h.1M31 42.7c.1-.1.2-.1.2 0 0 0 0 .1 0 0H31m-.4 0v-.1h.1v.1h.2v.2c-.1 0 0 0 0 0h-.2v-.1h-.1m1-.2h.1m1-.2h.2l-.2.1h-.1l-.1.1a.1.1 0 0 0-.1 0h-.1c0 .1 0 .1-.1 0-.1 0 0 0 0 0v.1H32l.1-.1h.1l.1-.1h.2c0-.1 0-.1.1 0m-1.6-.1h.1c-.1 0-.1 0 0 0m.9-.1h.2l-.1.1a.2.2 0 0 1-.1.2v-.1h-.4c0 .1 0 0 0 0v.2h-.1v.1h-.1c.1 0 .1 0 0-.1h-.1v.1c-.1 0-.1 0 0 0-.1-.1-.1-.1-.1 0a.1.1 0 0 1 0-.2h.1c0-.1 0-.1 0 0h.1v-.2h.1c.1 0 .1 0 0 0h.2a.1.1 0 0 1 .1 0h.2s-.1 0 0-.1m.7 0h.1ZM33.4 42.3h.1-.1v.1H33h.1s.1-.1.2 0v-.2m-1 0h.1v.1s-.2 0-.1.1v.1-.2h-.1s.1 0 0 0h.1M34 42h.1s.1 0 0 0H34v.1H33.6h.1l.1-.1h.1m-4.4-.1c.1 0 0 0 0 0m.1 0Zm4.6.1v-.2.2ZM33.6 42v-.1m1 .1v-.1.1m-.4 0v-.1m0 0H34m-.2 0v.1h-.1v-.1m1.1 0c0-.1.1 0 .1 0l-.2.1h-.2v-.2h.2c.1 0 .1 0 0 0h.1m-2 0v.1m.2-.1Zm5 .1h.6l.2-.1c.7-.1.4 0 .2 0-.3 0-.5 0 0 0s-.5.2-.5.2h-.4m-3.9-.3c.1.1.1.2.2.1v.2s-.1 0 0 0c0-.1 0-.1 0 0l-.2-.2m-3.7 0 .5-.1v.1a.2.2 0 0 0-.2.1h-.1l-.1.1h-.2l-.1.1h-.2l-.2.1c0 .1 0 0-.1 0v.1h-.1l-.2.1a13.2 13.2 0 0 0-.9.4l-.2.2-.6.3c-.3.2-.2 0-.2 0l.7-.3.4-.3a11.2 11.2 0 0 1 1.8-.9m-.3 0c-.2 0-.1-.3 0-.1m11.4 0c-.3-.1 0-.1 0 0Zm-11.3 0v-.1Zm-.1-.1Zm6.4-.1Zm-6 0c-.1 0-.1 0 0 0m.1-.1c0-.1 0 0 0 0v.2s-.1-.2 0-.2m4.9 0Zm-4.7 0c0-.1 0 0 0 0Zm.2-.1h.1s0 .1 0 0m.2 0 .1-.1v.1m5.8-.3c.1 0 0 0 0 .1.1 0 0 0 0 0m1.1 0V41v.1m-7.3 0s0-.1 0 0c.1.1 0 .1 0 0m7.2 0h.1l.2-.1v.1h-.2Zm.4 0V41h.2c0 .2 0 .1 0 0h-.1m-7.3 0c.1 0 0 0 0 0m7.7 0H40c0 .1 0 0 0 0h-.3c0 .1 0 .1 0 0h-.2c0 .1-.2.1-.1 0h-.1s0 .1-.1 0h.2M32.4 41s0-.1 0 0m.1 0s0-.1 0 0Zm-.2 0h-.1c0-.1.2-.1.1 0Zm-.7.2c.2 0 0-.4.2-.3 0 0-.2.2 0 .1 0 .1 0 .2 0 0h.2c0 .1 0 0 0 0v.1c-.1.1-.2 0-.2 0v.1h-.1v.1h-.1M37.8 40.8h.2c-.1 0-.1 0 0 0v.2h.2c.1 0 .1 0 0 0 0 .1 0 .1 0 0v.1s-.1 0 0 0H38s0 .1 0 0H37.7v.1H37.4s0 .1 0 0h-.2l-.1.1s-.1 0 0 0c0 .1 0 .1-.1 0h-.4v.1H36.4c0 .1-.1.1-.1 0h-.1l-.1.2v-.1h-.2c0 .1-.1.1-.2 0h.1l.2-.1.1-.1h-.2c0 .1 0 .1 0 0h-.2v-.1c-.1 0-.1 0 0 0v.1s-.1.1 0 .1v.1h-.1s0 .1-.1 0c0 0-.1 0 0 0a.1.1 0 0 1-.1.2h-.2c-.1 0-.1-.1 0-.1v-.1h.2v-.1s-.1-.1 0 0h-.2v.1l-.1-.1v.1h-.5s-.1 0 0 0H34l-.2.2h-.1v.1l.1-.1v.1h-.2c0-.1 0 0 0 0h-.1v.1h-.2s-.1 0 0 0h-.2v-.1c-.1.1-.1.1-.1 0l.1-.2c0 .1 0 .1 0 0h.3c.1 0 0 0 0 0h.2s-.1 0 0 0c0 0-.1 0 0-.1 0 0 .1.1 0 0h.1c.1 0 .1 0 0 0 .1 0 .1 0 0 0l.1-.1h.4s0-.1 0 0H34.7c0-.1 0-.1 0 0h.1a.1.1 0 0 1 .1-.1l.1-.1c.1.1.1 0 .1 0h.2l.1-.1c.1 0 .1 0 0 0h.4l.3-.1h.2V41H36h1.1l-.1.1v.1c-.1 0-.1 0 0 0 0 0 0 .1 0 0h.1a.1.1 0 0 0 .2 0s.1 0 0 0V41h.2-.2l.1-.1h.2c-.1 0-.1 0 0 0l-.1.2h.2c.1 0 .1 0 0 0h.1v-.2m-6-.1h.1m.7 0c-.1 0 0-.1 0 0Zm5.4 0h.2-.2m-6-.1v.1-.1m1.8 0h.1c.1 0 .1 0 0 0h-.1a.2.2 0 0 0-.2.2c-.1 0 0 0 0 0h-.2a.1.1 0 0 0-.2.1s0 .1 0 0l-.2.1H33l-.3.2H32.4a.2.2 0 0 0-.2 0v.1H32v.1h-.2l-.2.1c0 .1 0 0 0 0h-.1s-.1.1-.2 0c0 .1 0 .1 0 0l.2-.1.3-.1.3-.2h.2c0-.1 0-.1 0 0l.2-.1a.2.2 0 0 0 .1 0l1.3-.4m-1.1 0v-.1Zm-.3 0v-.1m.3.1h.2l.1-.2c0 .1.1 0 0 .2 0 0 0 .1 0 0l-.2.1h-.1M33 40.5Zm.9 0c-.1 0 0 0 0 0m-1 0c0-.1 0-.1.2 0l-.1-.1m4.3-.1Zm2.6 0c-.2 0-.2-.1 0-.1m-.2 0Zm-2.3 0h.4a3 3 0 0 0 .4 0h.6-.9l-.4.1m2.6-.1c-.1 0 0 0 0 0h.1-.1m-4.3-.7h.3l.3-.1-1 .2h-.3l-.2.1-.7.2 1.6-.4m2.5-.2h1c.3 0 .4.1.4.2h-.6.2s.1 0 0 0h-1v.1l-.2.1h.2l1 .1h.2-.2l-.3.1a2 2 0 0 0-.9.1.1.1 0 0 1-.1 0 2.5 2.5 0 0 0-.6 0 2 2 0 0 0-.3.1h-.3l-.1.1h-.4l-.3.1H35.7a.2.2 0 0 1-.3 0h-.1s0 .1 0 0a.2.2 0 0 0-.2 0l-.2.1-.4.1h-.1l-.1.1h-.1v-.1l.5-.1.6-.2h.2c.1 0 .3 0 .3-.2h-.1v.1h-.5a.1.1 0 0 0-.2 0h-.2v.1h-.5v.1h-.2c0 .1 0 .1 0 0h-.3c.1.2 0 .2 0 .1l-.1.1h-.1s0 .1-.1 0l-.2.1c0 .2 0 0 0 0h-.1v-.2c.1.2 0 0 .1 0l.2-.1h.2l.1-.2c0 .2 0 0 0 0 .3-.1.2 0 .2 0 0 .1 0 0 0 0 0-.1.1 0 .1 0h.1l.1-.1c0 .2.2 0 .1 0 0 0 0-.1 0 0h.2c-.1-.1 0 0 0 0v-.1c.1-.1.2 0 .2 0 0-.1 0 0 0 0h.1v-.1h.1s.1 0 0 0c0-.1 0 0 0 0h.1c.1 0 0 0 0 0l.1-.1a.1.1 0 0 0 .2 0h.4l.2-.1h.2c0-.1.1 0 .1 0l.3-.1h.1s.1 0 0 0h.3l.4-.1a3.6 3.6 0 0 0 .5 0l.1-.1h.1M38 39Zm.3 0h.2-.2Zm-11.7 3.1c-.4.2-1.2.8-1.3 1.2l.3-.1c.2-.1.3-.3.2 0-.5.4-.2.4 0 1 .3.6.4.5.5.4 0-.1 0-.2 0 0 .3.7.3.4.6.1.2 0 0 .1 0 .2v.1h.1s0 1 .3.9c.2-.1 0-.6.2 0l.3-.3s0 .8.1.4c.2-.7 2.7-2 2.5-1.7l-.3.2c-.6.3-1.2.8-1.7 1.3l.6-.5c.2 0 1.4-1 1.3-.7l-1 .6-.4.4-.4.3.2-.2h.2v-.1l.7-.4.4-.2c.2 0 0 0 0 0 .3-.3 0 .1 0 .3l-.1.3s-.1.2 0 .2l-.1.1v.2-.1.1l-.2.1c.1.2 0 .2 0 .2l-.6 1.2-.5 1.3a6.1 6.1 0 0 0-.2.4 6 6 0 0 0-.3.8l-.1.4-.2.5v.1l.1-.3a29.3 29.3 0 0 1 .9-2l-.1.1V49.3h-.1v.2l-.2.3v.2l-.1.1V50.4l-.1.2a.1.1 0 0 0 0 .2l-.4.8v.2l-.1.3-.2.6-.2 1.2c0 .6-.1 1.6.3 2l.2.2.2.3-.1-1.2v-.1c-.2-.5.4-2.3.5-2.8a17.2 17.2 0 0 1 .7-2.2V50l.1-.1.2-.3V49l.1-.1.2-.5.2-.4.1-.3a4.9 4.9 0 0 1 .4-.8l.3-.6.3-.5.1-.2.7-1.2v.1l-.2.3-.2.4-.1.3-.1.2v.1-.1l.6-1-.3.7h.1s.1 0 0-.1h.1l.1-.2.2-.2c0-.2.2-.3.3-.4v-.1l.2-.2s0 .2-.2.3l-.3.5a47 47 0 0 0-.7 1.3v.3l-.3.4-.2.4-.1.3-.2.3a58 58 0 0 0-1.4 3.6s0 .1 0 0c-.1 0-.1 0 0 0v-.5l.1-.2.1-.2v-.2h.1v-.2a.1.1 0 0 1 .1-.1l-.2.5-1 2.7v.5l-.1.4-.2 1c0 .7 0 1 .5 1.6.3.3.2.2.3 0 .2.1.2.3.3.4.3.4.3.3.3.2 0-.1 0-.2 0 0 .2.3.5.6.9.7.7.4.5.2.5-.3-.1-1.5 0-3 .3-4.5.3-1.2.8-2.2 1-3.3l.2-.1a14.6 14.6 0 0 1 1.1-2.7l.1-.1V47h.1v.2l-.2.2.2-.2a1.5 1.5 0 0 1 .1-.3h.1l.1-.3.1-.2.1-.1.2-.3V46l.1-.1s0-.1 0 0l.2-.3.2-.2a1 1 0 0 0 .1-.2l1-1.2v-.1l.2-.3.1-.2h.1l.4-.5.2-.1h.2l.1-.2h.1v.1l-.2.1-.1.1c0 .1-.1.2 0 .1v-.1h.2v-.1l.2-.1.5-.2.2-.1h.4l.5-.2h.1c.8-.1 2-.2 2.7.2.3.2.7.8.5.4-.1-.2-.7-1-.2-.4l.3.3c0-.2-.8-.9-.4-.7l-.6-.8-.8-.5c-.1.1-.2 0-.4-.1 0 0-.1 0 0 0v-.2h-.2s0-.1 0 0l-.1-.1.4.1s.3.2.1 0l.3.1c.5.3 0 0-.2-.2l-.2-.1-.5-.2-.2-.1v-.1c-.1 0-.1-.1 0 0 0-.1 0-.1 0 0h.2v.1l.4.2h.1c-.1-.2-.2-.2 0-.2 0 .1 0 0 0 0l.2.1c-.1-.2-.1-.2 0-.1l-.3-.2c-.4-.3-.8-.4-1.3-.5h-.2.2-1.2v.1h-.1a.2.2 0 0 1-.2 0h-.4l-.3.1h-.3H37.2l.2-.1h-.5a79.5 79.5 0 0 0-3.1.8c-.5 0-1.7.4-2 .5l-.2.1h-.1l-.1.1H31a1 1 0 0 0-.3.1h-.3c.1 0 4.5-1.6 6.8-1.8-2.5 0-8.3 2-10.7 3.3"/><path fill="url(#d)" d="M35.4 55v.2-.2m.4 0v.3c.1.1.1-.4.1-.4a.2.2 0 0 0 0 .2m10.8-.2Zm-6.4 0c1.6 0 6 .7 7.4 2.7-.8-2-5.3-2.8-7-2.8h-.4m-4.4 0c.2 0 0 0 0 0Zm10.5 0Zm-10.5 0v-.1Zm0-.1h.1v-.3.3m-.2-.1v-.3.3Zm5.9-.9h.1m-5.6 0s.1.2 0 0m0 0v.1-.2.1m.1-.3v.2c0 .3.3.3 0-.1.2 0 .1 0 0 0v-.1Zm0 0h.3-.1c-.1 0-.1 0 0-.2l-.1.2m0-.2V53v.2Zm.2-.4v.1c-.1.2 0 0 0 0v-.1M37.2 51.6c.1 0 .1 0 0 0Zm0-.4.2-.6c-.1.2-.4.5-.2.6Zm.2-.6v-.1.1Zm1.5-.4ZM38.3 48.4v-.1Zm2.9-.2v.1l-.1.1s0 .1 0 0v-.1l.1-.1m0 0 .1-.3v.3Zm3.8-.3c-.2.2.2 0 0 0Zm.2-.2c-.3.2.2 0 0 0Zm0 0 .2-.1-.1.1m.4-.4c-.2.2 0 0 0 0 0 .1 0 0 0 0m.1-.2c0 .1 0 .1 0 0 .1 0 .1 0 0 0m-4-.3v.2-.2m-1.4 0c0 .1 0 0 0 0 .1 0 0 0 0 0m9 .2.2-.3-.2.3m-8.6-.8Zm.3-.5c0 .1 0 .1 0 0m-1.3 0v-.1Zm1.5-.2c0 .1 0 0 0 0m.2-.4h.1m-.5.3.5-.6c-.2 0-.4.4-.5.6M41 44.3c0-.1 0 0 0 0m.9-.9h.1Zm.2 0c0-.1.1-.1 0-.1Zm.2-.1Zm.3-.1h-.1l.2-.1h-.3m-1.2 0h.1Zm1.5 0s.1 0 0 0Zm.2 0Zm.1-.1c-.1 0 0 0 0 0Zm.2 0H43h.1m.2 0c-.2 0-.2 0 0 0Zm-2 .7c2.5-.7 4.2-.7 5.1-.6-.4-.2-.8-.2-1.3-.2a10 10 0 0 0-3.7.8m3.2-1h.1Zm.3 0Zm0 0h.1m-3.1-.5V42v.1m.6-.3v-.1m.4 0ZM43 41.7s.1 0 0 0c.1 0 .1 0 0 0m.1 0h.2c-.1 0 0 0 0 0h-.1m.6-.1h.1m-.6 0h.1m-.1 0Zm.2-.1h.1s.1 0 0 .1h.1-.1m.4 0v-.1H44h.1v.1-.1m.4 0c0 .1 0 0 0 0m-.4-.1ZM40 41.4h.2l.1-.2-.3.1Zm3-1 .1-.1M43.4 40.2h.1-.1Zm.3-.1h-.2.1v.1h.1c.1 0 .1 0 0 0h.1V40m.1 0h.1Zm-.1 0c.1 0 0 0 0 0V40m.5-.1c.2 0 .2 0 0 0m.2 0c.1 0 .1 0 0 0m.4 0h.1s-.1 0 0 0m1 15.6c-.2-.1-.2-.2 0-.1l.4.2-.4-.1m-10-.2v-.1c.1 0 .1.2 0 .2v-.1m2 0c.2-.5 0 0 0 .2a.1.1 0 0 1 0-.2Zm.2-.4v.2-.2Zm-.4.1c0-.3.3-1 0-.2l-.1.5V55Zm.2-.6h-.1Zm3.3 0c0-.1 0 0 0 0m-5 0v.2-.2s0-.1 0 0c0-.2.2-.2 0 0Zm4.4-.2s.1.1.1 0a.1.1 0 0 0 .1 0h.1v.1h.1a3 3 0 0 1-.4 0h-.4.3m2.8-.2c-.3 0 .5 0 0 0Zm-.3 0c0-.1 0 0 0 0m-5.8-.2c0-.2 0 0 0 0 .2-.1.1 0 0 0m5.4-.2Zm-1.8 0h.2c0-.1 0 0 0 0h.1v.1s-.1-.1-.1 0c-.1 0-.1 0 0 0-.1 0-.1 0 0 0H41m.3-.2v.2h.1l-.1-.2m1.2 0v.1h.1s0-.1 0 0c.2.1.2 0 .2 0 0 .2 0 0 0 0 .3-.1.5.1.5.1.1 0 0 0 0 0-.1-.1 0 0 0 0h.1s.1.1 0 0h.3c.1.1.1.1.1 0l.2.1h.3v.1h.2c.2 0 0 0 0 .1H44.8l.3.2c.3 0 .6 0 .7.2h.2c.2 0 .1.2.2.2v-.1h.1c.2 0 .2.1.1.1l.3.2.1-.1c0 .2.1.2.3.3l.2.1s0 .1 0 0c-.1 0-.3 0 0 .4l-.4-.4V55h-.2c-.2-.1-.1-.2-.3-.1 0-.1 0-.2 0 0-.5-.4-1.7-.5-1.7-.5 0-.2-.2-.3-.2-.2 0 .2 0 0 0 0h-.1s-.1-.1-.2 0h-.1l-.1-.1h-.3a.2.2 0 0 0-.2-.1h-.1l-.6-.1a.3.3 0 0 0-.4 0h-.2l-.2-.1H41.4v-.2c0-.1 0-.1 0 0h.1v-.1l.1.2v-.1h.1c.1 0 .1 0 0 0 0-.1 0-.1.1 0h.1s0 .1.1 0h.4m2.3-.1s-.2-.1 0-.1h.3l.1.1a2 2 0 0 1-.3 0m-7.3 0c0-.1 0-.1.1 0m6.8-.2h.2-.2Zm-.3 0c-.1-.2.2 0 .2 0h-.2Zm-1.3-.1 1.2.3-1.7-.3c-.1 0-.1 0 0 0h.4m1.2 0c-.4-.2.2 0 .1 0h-.1Zm-2-.1c.1 0 .1 0 0 0m1.7 0c.1 0 0 0 0 0m-.1 0s-.1 0 0 0ZM43 53c.2 0 .1 0 0 0m-.5-.1h.3c0 .1.2 0 .1.1-.2 0-.5 0-.4-.1m-.2 0a.2.2 0 0 1 .1 0h-.1Zm-.2 0c0-.1 0-.1.1 0m-.3-.1s0-.1 0 0h.1m1.2.1a31.9 31.9 0 0 1 3.2.7l1.5.7c-.9 0-3.7-1-4.7-1.4m-1.4-.2Zm-.1 0c0 .1 0 .1 0 0m-.2 0Zm0 0h.1m1 0h.2-.1m-1.3 0Zm-.6 0c.1 0 0 0 0 0m.3 0c0-.1 0-.1 0 0h.2-.2v-.1m-.1 0Zm3-.5c.3 0 2.1.4 2.4.6-.4.1-1.8-.3-2.3-.5 0 0 0 .1 0 0h-.1V52Zm-7.3-.2c0-.1 0-.3 0 0v.1-.1m.4-.4h.1c-.1.3 0 .4 0 .2v-.1c-.1 0 0 0 0 0m6.8-.3c-.1-.1 0-.1 0-.1Zm-2.8-.7h.1m-.6 0h-.2.2Zm3.8.2.4-.2c0-.2.3-.2.1 0-.2.1 0 .2-.1.1-.1 0 0 0 0 0v.1l-.2-.1-.1.1c0 .2-.4.3-.5.4l.4-.4ZM45.3 50.3s-.2 0 0 .1v.1c-.1 0-.3 0 0-.3m-3.8-.1V50h.1m4 .1.2-.1-.4.2h.1m-4.5-.3h.1m2 .5.4-.3a26.8 26.8 0 0 1-.4.3Zm-1.8-.7c0 .1 0 .1 0 0m-2.6 0c.1-.1 0 0 0 0v.1m2.5-.2.2-.2c.1-.1.1-.1 0 0l-.1.1-.2.1v.1-.1m.6-.1v-.1h.1-.1m-1.5-.3h.1c-.1.1.1.1 0 .1-.2.1 0 .2 0 .2H40v.2l.1-.6m1.7 0Zm-.4-.1h-.2.2Zm-1.1 0v-.1c0 .2 0 .1 0 0v.2c-.2-.2 0 0 0 0 0 .1 0 0 0 0s-.2-.1 0-.2M41.6 48.8v-.1.1Zm2 0 .3-.2-.3.3m-3.1-.2v-.2l.1-.2v.2l-.1.2m3.7-.4c0 .2 0 .1 0 0m-2.4 1 .5-.3.7-.5-.5.4a4.6 4.6 0 0 0-.7.5Zm4.6-1a6.7 6.7 0 0 1-1.2 1l1.2-1Zm-5.3 0h.1Zm1.2.4a10.9 10.9 0 0 1 .4-.3l-.3.3-.2.1-.2.2.3-.3m-1.6-.5v-.1.2m3.7-.2.2-.1-.1.1c0 .1 0 0 0 0h-.1M43 48s.5-.3.1 0m3.5.4c1.1-1 .6-.6.2 0l-.7.5-.2.3h-.1l-.9.7-.3.3-.2.1-.4.2 2.6-2m-5.6-.7c.1 0 0 0 0 0m-2.5-.2v.1-.1m5 0v.2c-.1 0 0-.2 0-.2Zm3 0s0-.2.1 0l-.1.2-.3.2.1-.1.1-.1v-.1h.2m-4 .4.2-.2.6-.4a4 4 0 0 1-.7.6h-.1Zm1.2-.7c-.1 0-.2 0 0 0m-2.5 0-.1.2-.1.1c0-.1 0-.2.2-.3Zm5.6 0c0 .1-.5.1 0 0h-.2a.1.1 0 0 0 .2 0m-8.2-.2v.1s-.2 0 0 0m0-.2c0-.1.3 0 .1 0M47 47l.2.1c0 .2-.6.3-.2.1v-.2m.2 0c-.1 0 .2 0 0 0Zm-8.6 0s.1-.2 0 0c0 .1 0 0 0 0v.2-.2m8.6 0H47c0-.2.2-.2 0 0Zm.2-.2c-.1 0 0-.1 0-.1v.2Zm-2.9-.2c.2 0-.3.4-.3.4l-.4.4c-.1 0 0-.2.3-.3V47H44.5c0-.1.1-.2 0-.1l.1-.1m-5.8 0c0-.1 0 0 0 0v.1Zm8.7 0s0-.1.2 0v.1h-.2m.2-.2c-.1-.3 0-.2 0 0m-5.6 0 .1-.2c.4-.5 0 0 0 .2a4.8 4.8 0 0 0-.4.5v.1a3.1 3.1 0 0 1-.3.5v.3l-.2.2V48.6v-.1.2l-.1.2c-.1 0-.1 0 0 0H41a1.4 1.4 0 0 0-.2.2l-.2.1v-.1l.2-.5c0-.2.2-.3.2-.3V48l.2-.1v-.2l.2-.2v-.2l.2-.2V47l.2-.1v-.1h.2v-.2m5.8-.3c0-.1 0-.2.2 0v.1h-.2m-.3 1.3.1-.1c.5-.4.8-1 1.2-1.4.2-.1.2-.1 0 0l-.9 1.2a3 3 0 0 1-.5.4l.1-.1ZM39.2 46c.1-.2 0 0 0 0m6 0c.3-.2.1 0-.1.2l-.4.4c-.3 0 .1-.1.1-.2h.1v-.1c0-.1 0-.1 0 0 .1-.2.1-.2.2-.1V46h.1m.3-.2c0-.1 0 0 0 0Zm-6 0v-.1m6 0c-.1 0 0-.1 0 0 0 0 .1 0 0 0m-6 0c0-.1 0-.1 0 0h-.1m5.1 1.3.4-.3h.2c0-.2.6-.7.6-.8l.4-.4-.6.6c0 .2-1 .9-1 .9 0 .1 0 0 0 0m3.7-1.3a.1.1 0 0 1 .1-.2v-.2c.3 0 .3.1.2.2h-.1l-.1.2m-8.5-.5c.1-.1.1 0 0 0v.2-.2Zm2 0v-.1.2-.1ZM40 45Zm8.6-.1v.3-.3Zm-8.5.8.1-.3.2-.4h.1l.2-.2c0-.1 0-.2.2-.2v.1c-.2 0-.2.1-.2.2h-.1v.2c-.1 0-.1 0 0 0h-.1v.1c-.1 0-.1 0 0 0l-.1.1-.1.1v.1l-.2.2-.3.5v.1c-.1.2-.4.7-.1 0a3 3 0 0 1 .2-.3V46l.2-.3m1-1s.1-.1 0 0v.1H41Zm-1 0h.1l-.2.2v-.1h.1m.1-.3v.1m8.7-.2c-.1-.2 0-.4 0-.2.2.1.2.2.1.3 0 0 0-.1-.1 0h.1l-.2.4v.2c-.1.2-.1 0-.1-.1v-.2c-.1 0-.1 0 0-.1 0 0 0 .1 0 0v-.3h.1m-1 0 .1-.2c0-.2.1-.2.2 0 0 .1 0 0 0 0 0 .3-.7 1.1-.9 1.5 0 .2-.1.1-.1.1v.1H47c-.1.2-.6.5-.5.7-.2 0-.4.3-.4.4.2 0 0 0 0 0v.1h-.3s0 .1 0 0l-.2.3c-.3 0-.1.1-.2.1l-.2.3c-.1 0 0 .1 0 0H45l-.1.2-.1.1c0-.1-.1 0-.2 0v.1c0 .2-.7.5-.6.5-.7.5.6-.6.6-.6l.2-.1v-.2c.1 0 0 0 0-.1h.1l.3-.3c.3-.1.4-.5.7-.7l.8-.9a.2.2 0 0 0 .1 0c0-.3.3-.3.2-.4 0 0 .2-.2.1 0 0 0 .6-.8.6-1m-7.2-.3.1-.1-.1.1m-.2.2V44h.2V44l.1-.1h.1l-.3.2v.2m5.5.7.4-.5.5-.7c.3-.2-.6.9-.6.9v.1l-1.9 1.8-1 .8 1.1-1 1.5-1.4m1.1-1.2s.1-.1 0 0c0 0 0 .2-.2.3l.2-.3ZM40.7 43.3l1-.5h.2-.2l-.2.1v.1h-.2v.1h.2-.2c-.1 0-.1 0 0 0h-.1l-.3.2h-.4c0 .1 0 0 0 0s.2 0-.1.3c-.3.2-.2 0 0 0 0-.2.2-.3 0-.1.1-.3.1-.2.3-.3m1.3-.6Zm1.2-.2Zm.9 0h.4-.4M45.4 42.4h-.2l.2.1H46.5c0 .1 0 .1 0 0 0 .1 0 .1.1 0l.1.1h.1l.6.2h-.3l-.4-.1h-.6H46.7a4.3 4.3 0 0 1 .6.2v.1c0 .2-.3.2-.2.3l-.1.3-.2.2a17.8 17.8 0 0 1-4.5 4.2l-.2.1-.3.3-.6.4.1-.3.1-.2v-.1l.1-.2.1-.1.1-.1c0-.2.1-.3.2-.3l.1-.2a21 21 0 0 1 .7-1.1s.2-.3 0-.4c0 0 0-.4-.2-.1-.2.3 0 0 0-.2-.2 0-.4.4-.6.6v.2h-.1l-.1.2v.1h-.1v.1l-.1.2-.1.2-.1.2a4.9 4.9 0 0 1 .4-.8l.1-.3.3-.3v-.5l-.1-.1c0-.2-.1 0 0-.2 0-.1 0 0 0 0s-.1 0 0-.1c0-.1-.6.2-.8.7v.1l-.2.3-.2.2-.1.3v.1a3.9 3.9 0 0 0-.4.7l-.3.4v.3l-.2.2c.1.1-.2.3-.2.3.1.1 0 .3-.1.5v.1l-.1.1c0 .3 0 .2-.1.2 0 0 0-.1 0 0v.2c0-.1 0-.2 0 0l-.2.2v-.1.2c-.2-.2-.3 0-.2 0h.1c0 .1-.1.3-.2.2-.2-.1.1.1 0 .2l-.1.1v-.3l.4-1.1c.3-.3-.1-.3.2-.4V48.4h.2v-.2c0-.1 0-.1 0 0V48s.1 0 0 0l.1-.3v.2c0 .1.1 0 .1 0 0-.1 0 0 0 0v-.2h.1v-.4c.1 0 .2.1.1 0 0 0 .2-.1 0-.2h.1v-.2l.1-.2h.1v-.1l.1-.1c0-.2.1-.3.2-.3V46l.1-.2h.1l.1-.3.2-.2.2-.4.1-.2c-.1.2 0-.1-.1-.2l-.1.1a.2.2 0 0 1-.2.1v-.1l-.2.2h-.1c-.1.1-.1 0 0 0l.1-.2v-.2c.2 0 0 0 0 0h-.1l-.2.2-.1.1.2-.3.2-.1.2-.3c.1 0 .2 0 0 0v-.1c-.1 0-.1 0 0-.1 0-.1 0-.1 0 0v-.1s0-.1 0 0c.1 0 .1 0 0 0l.1-.1c.1-.1.1-.1.1 0h.1c0-.1 0 0 0 0h.1v-.1l.1-.1v.1l.2-.1h.2c0-.2 0-.1.2-.2l1-.3h.4l.1-.1h.4a7.7 7.7 0 0 1 1.1-.2H45.3m-3.8-.1h-.1c0-.1.1 0 .1 0Zm.1-.1h.1m3.9-.7h.2-.2m-3.8-.1s.1 0 0 0h-.1m3.2-.1c.1 0 0 0 0 0m-2.7 0h.1s-.1 0 0 0m4.2 0h-.2l-.1-.1h.3m-1.1 0c-.1 0-.1 0 0 0m-.3 0h-.2a.1.1 0 0 1 0 .2h.2c0-.1 0-.1 0 0v-.1l.1.1v-.1h.1v.1h.2l-.2.1a1 1 0 0 0-.4 0h-.4s0 .1-.1 0c0 0-.2 0-.1.1H43.4s0 .1 0 0h-.1v.1H43v.1-.1c-.1 0-.1 0 0 0v-.1H43c0-.1 0 0 0 0s-.1 0 0 0v.1l-.1.1-.1-.1h-.1v.1l-.1.1h-.2c0-.1 0-.1 0 0l-.1.1-.2-.1c.1 0 .1-.1 0-.1s-.1.1 0 .2c-.1-.1 0-.1 0 0 .1 0 0 0 0 0l-.1.1c-.3 0 0-.1-.1-.2 0 0-.1 0 0 0l-.1.2h-.1s0 .2 0 0c0-.1-.1 0-.2 0s-.1.1-.2 0c0 0-.1.2 0 .2s0 .2-.1 0c.1 0 0-.1 0 0H41s0 .1 0 0h-.2v.1s-.2 0-.2.2c0-.2 0-.1 0 0v-.2l-.1.2h-.4l-.1.1c0 .2-.1.2-.2.2 0 .2 0 0 0 0 0-.1 0-.1.1 0V43l-.3.2c0 .2-.4 0 0-.4l.2-.1c.4-.2.2-.3.7-.4.3-.2.1-.2.4-.2l.9-.2h.1l.1-.1H42.4l.3-.2h.5c0-.1 0 0 0 0h.1s0-.1.1 0h.1c0-.1 0-.1 0 0h.1l.2-.1h.2s.1 0 0 0h.1v-.1h.1v.2H44.6v-.1c-.1 0-.1 0 0 0h-.2v-.1c0-.1 0 0 0 0h.4s0 .1 0 0v.1s.2.1.2 0h.1-.1v-.1c0-.1 0 0 0 0h-.2l.2-.1h.2m-2.7 0h.3l.4-.1h.2l.8-.1h-.8l-.4.1-.2.1h-.2m1.8-.3Zm.2 0h.1m3.3-.2h-.1v-.1c0 .1.1.2 0 .2m-3.8-.4Zm3.2 0a.1.1 0 0 1-.1 0h.1m-1 0v-.1H46.9v.1a5 5 0 0 1-.6-.1m0 0c-.1 0-.1 0 0 0Zm.8 0c0-.1 0 0 0 0m-1 0v-.1Zm1 0v-.1h-.1m-1.3 0Zm-2.5-.1Zm-5.4 1.5a142.3 142.3 0 0 1 0 0Zm6.5-1.6h.1m-1.6-.3s-.1 0 0 0m0 .2h.2l.2-.1c.6-.1 1-.1 1.6 0v-.1h.7H45v.1h.4-.7c0 .1 0 .1 0 0h-.4v.1H44.1c.1 0 .1 0 0 0 0 .1 0 .1 0 0-.1 0-.1 0 0 0h-.2v.1h-.1 1.7-.9l-1.3.2c-.5 0-1.1.2-1.7.4-.4 0-.5.2-.6.1-.6.3 0 .3 0 .1.1.1 1.2-.2 1.3-.2 0 0 0-.1 0 0H42.6l.2-.1h.3l.6-.2h1.5a4 4 0 0 1 .8 0 5.3 5.3 0 0 0-.9 0h.2a9 9 0 0 1 2 .4h.1v.2l-.2-.2H47l-1.7-.4H44l-.2.1h-.6a1.4 1.4 0 0 0-.4.2l-.8.1-1.2.4c-1.2.4-.5.2.2 0l-1.6.7c-.5.2-.3 0-.1 0 .2-.2.5-.4-.4.1-1.1.6-.5.2.2-.2l.6-.4c-.8.3-.1 0 .1-.2 1.8-.8 0 0-.7.2l1.9-.8c1-.4 1.4-.5.1 0-.3.1-.4.2 0 .1l.8-.3v-.1h.7l.2-.1h.2V40H43.3h-.1l.3-.1h.1c0-.1 0 0 0 0h-.2s0-.1 0 0h-.1c0-.1 0-.1 0 0 0-.1 0-.1 0 0h-.1c0-.1 0-.1 0 0a.2.2 0 0 0-.3 0h-.2l-.8.2h-.2l1-.3m-1.2-.3-.6.2a10.5 10.5 0 0 1 .6-.2Zm3.5 0Zm-.4 0h.2-1.4a11.7 11.7 0 0 0-.5 0H44.5m-2.2-.1c.1 0 0 0 0 0h-.1m.6-.1c-.2 0 0 0 0 0Zm-.3 0h-.2l-.6.2.8-.2Zm.3-.1h.2l.6-.1H43l-.2.1m2-.2s-.1 0 0 0Zm-1.2 0h-.2c-2 .3-5.8 1.6-7.2 3 .3-.3.7-.7.5-.2-.3.5-.2.5 0 .4h.2c.3.4-.6.6 1 0-.4.3 0 .2-.3.7-.2.3 0 .2.2.2.3 0 .7 0 .6.6-.2.9 0 .2.4 0-.3.8.3.2.2.8v.3l-1.1 2.7c-.5 1.1-1 2.1-1.4 3.3l-.2.7-.7 2.4c0 .3 0 0 .1 0l.1-.4c0 .2.1.1.1 0v.1c-.2 1.4.5-1 .5-1 .5-1.4.3-.7.1 0l.4-.7.2-.6s-.2.2-.1 0V51c0 .1 0 .1 0 0h.1c-.2.3.3.1 0 0s0 0 0-.2l.2-.3.1-.4c.2-.6 0 .1 0 .1.3-.3.1-.4.2-.5.2 0 0 0 .1-.3l.2-.6v-.1l.1-.3c0 .3.2 0 0 0l.2-.2s.1 0 0-.2v-.2h.1c0-.1.1-.2 0-.1V48c.2-.1.1-.1 0-.1l.3-.5c.1 0 0 0 0 0 .3 0-.1-.1.2-.3-.2-.2.1 0 0-.3h.1v-.2c0-.6.1 0 0 0 0 .2.1 0 .2 0l.2-.6c0-.1 0-.1 0 0l.1-.1v-.1c0-.1 0-.1 0 0h.1v-.1l.2-.1v-.2a.1.1 0 0 1 0-.1h.1v.4h-.1c0 .1 0 .1 0 0v.2h-.2V46.4l-.2.1s-.3.5-.2.6c-.2.4-.3.2-.3.3v.1c.2.1 0 0 0 0v.1c0 .2 0 .1 0 0l-.1.2v.1c-.1.2 0 0 0 .2-.5.4.1.3-.3.4l-.2.4v.4c-.2 0 0 0-.1.1-.3.2-.2.6-.4.7l-.1.5c-.1.3-.1.2 0 .2 0 .2 0 .1-.1.1v.4c-.1.2-.1.1-.2 0v.1c-.1.4-.2.3 0 .5-.4.4-.2.4-.4.6v.3c0 .3-.1.2-.1.2 0-.1 0-.2 0 0v.2l-.1.2v.2l-.1.1c0 .2-.3.3-.3.1v.4s.1 0 0 0c0-.4.3 0 0 0-.2-.1 0 0-.1.1-.2-.1.3-.7 0-.5v.1c0 .1 0 .1 0 0-.3.7-.1.5-.1.5v.3l-.2.6v1.1c.3.8 1.8 2.5 2.9 2.5-.6-.6-.2-3.6.3-4.2.3-.4.4-.3.4-.1h-.1v.1l.4-.1c.3-.2.1 0 0 0 0 .2 0 .2.2.1.3-.2 1-.1 1.3-.1h.7a17.4 17.4 0 0 1 1 .2c1.1.1 3.2.8 4.1 1.4.6.5 1.2 1 1.2 1.8 0 .3 0 .5.1.4.9-.7.2-3.6 0-4.6 0-.1 0 0 0 0l.1.1c-.3-1-2.7-1.7-3.6-2-.2 0-.6 0-.5-.2 1.3-1 1.1-1.1 0 0-.2.2-.7-.1-.6-.1l1.1-.7c.2 0 .6-.3.7-.5.4-.3.2-.1 0 0l-.3.2c0-.2 0-.1 0 0v-.2l.4-.2 2.2-1.6s-.1.1 0 0v-.1c.5-.3.9-.7 1.2-1.1l-1.4 1.2s0-.2 0 0c-.1.2-.2.1-.2 0 0 .3-.7.7-.9.8l-.7.5c0-.1 0 0-.2 0l-.1.1.1-.1h-.1l-2.3 1.5h-.2l.1-.1.2-.2h.1l.4-.2c1.6-1.2 3.2-2.5 4.7-4-.6.8-1.2 1.3-1.9 2a11.4 11.4 0 0 0 3-3.1c.1-.4 0-1.3-.2-1.6-.3-.9-.6-1.3-.7-2.2l-.1-.9a2 2 0 0 0-.4-.7l-1.4-.8h-.6v-.1l-.6-.1h-.8.9c.1 0 .1-.1 0-.1h-2.2"/><path fill="url(#e)" d="M53.3 58.5h.1l-.2-.1Zm-.6-4.2v-.1m5.6-.5Zm-5.6 0v-.1m0-.1h.1m6.2.4.2-.2.2-.3-.5.5m-6-.6c-.1 0-.1.1 0 0V53v.2m0-.5v.1l.1-.2v.1m.2-.1.1-.2v.2Zm.1-.3c0 .1.1 0 0 0Zm.1-.2c.1 0 .1 0 0 0Zm5.7-2v.1-.1h.1-.1Zm-4.6.4-.2.4.2-.2c.2 0 .5-.7.4-.7l-.4.5m1.2-.8Zm2-1.2c-.5.2-2.2 1-2.5 1.4h.1l.4-.2c.2-.2.4-.2.5-.2.3-.3 1.7-.9 2.2-1.1l2.2-.8c-1 .1-2 .4-2.9.9m-2.5-3.8v.2l.1-.1v-.1m-.5-.3h.1v-.1s-.1 0 0 0Zm1-.5-.8.4a10.5 10.5 0 0 0 2.6-1l-1.7.7m2.9-.7c-1.2.3-.2.2 0 0h.1-.1Zm0-1.5h.1Zm.8-.1Zm1-.1c.1 0 .2 0 .1-.1Zm-8.7 16s-.1 0 0 0l.2.1H52Zm3.8-.6-.4.2-.6.3 1-.5Zm-3.1-.3c0-.2.2-.1 0 0m-2.7-.3s-.2-.2 0 0Zm4.4-.5c.1-.1.2-.2.3-.1l-.3.1c-.2.2-1.2.7-1.5.7l1.5-.7m-3.3-.4v.1-.1ZM53.3 55.6c-.2 0 .1-.2.1-.2v.1m.1-.1h.1-.1m-2-.2c.1 0 0 0 0 .2v.1-.3m-.4.3s-.2-.2 0-.2c0-.1-.1 0 0-.1V55.5m2.6-.2.1-.1c.3-.2.1 0 0 .1h-.1Zm-2.6-.3s-.1 0 0-.1v.2m4.3-.3a.2.2 0 0 1 0 .1c-.1 0-.1 0 0 0Zm-1 .1h.1a1 1 0 0 1-.4.2l.3-.2Zm.2 0v-.1c0-.1 0 0 0 0m-3.4-.1c0-.1.1-.1 0 0m3.7 0c0-.1.4-.4.1-.2l-.3.3.1-.2m.3-.2h.3-.2m-4-.5h.1c.2 0 0 .2 0 .1m.4 0c.1-.2.2-.1.2 0v.1c-.3.3 0 .2-.3.4 0 0 .2 0 0 0v.5c-.1 0 0 0 0 .1h-.1l.2-1m3.6 1.2a30.3 30.3 0 0 1 1.4-.8l-1.6 1.2c-.6.4-.5.2-.3 0 .2 0 .3-.1 0 0l-.2.1s0-.1 0 0l.1-.1c.1 0 .1 0 0 0l.6-.4m-4-1.5h.1m0-.2c.1-.3.1 0 0 0m6.5 0h.1c.4-.3.2-.1 0 0l-.2.2v-.1ZM49 55l.2-1.2c0-.3.2-.5.2 0A6.9 6.9 0 0 0 49 55h.1-.1v-.1m2.5-1.6c0-.2.1-.2 0 0M51 53v.1-.1m-1.6 0v.2s.1-.5 0-.1Zm9.1 0-.1.2.1-.2Zm-6.6.2.8-1.6-.4.8c-.1.2 0 .5-.2.6v.3c-.2 0-.2.2-.2.3l-.1.1v-.3l.2-.2m.7-1.7c-.1 0-.1 0 0 0m-1.8 1.6c0-.4.2-.7.3-1.1l.5-1c0 .4-.2.8-.4 1.2l-.3.7v.1l-.1.1m.9-2.3s-.2 0 0 0m-1.5-.7c.1-.4.1-.4 0 0l-.3.7.3-.7m.6.1.1-.4c.1-.4 0-.1 0 .2l-.1.3v-.1m4.7-1.7 1.2-.5h.2V48h.1a11.5 11.5 0 0 1-2.1 1l.6-.4M53.5 47.7c.4-.3 0 .1 0 .1-.1 0 0 0 0-.1Zm6.6-.6h-.3.3Zm-5.5 0c1.7-.7 1.9-.5 0 .2l-.3.1a4 4 0 0 1-.5.2l.8-.4Zm1-1.5s-.1 0 0 0c0-.2 0-.1 0 0m-2-1c.2.3-.5 2-.7 2.4l-.1.1.8-2.5Zm.7-.1.2.2.1.3c0 .2 0 .4-.1.3 0-.9-.3-.3-.4.2l-.4 1.2c-.1 0 .1-1.5.6-2.2Zm-2 1.6c.1-.4.2-1.5.5-1.7.2.5-.3 1.9-.2 1.2 0-.3 0-.5 0 0a14.7 14.7 0 0 1-.8 2l.5-1.5Zm1.5-1.9c.2-.1 2.1-1 .8-.3l-.8.4m4.2-1.6h.3l-.4.1h.1Zm-5.1-.2s.3-.1.2 0l-.2.1c-.1 0 0 0 0 0m2.2-.8-.6.2-.3.1H54c.4 0 .7-.2 1.1-.3Zm6-.2H61.4c0 .2 0 0-.1 0a.1.1 0 0 1-.1 0Zm0 0H61c-.4 0 .3 0 .1.1H60.8a7.1 7.1 0 0 1-1.6.3l-.7.2c-.5 0-4.8 1.4-4.8 1.3.7-.4 3.3-1 4.2-1.4h.3l.7-.3h.6c.1 0 .2-.1 0-.2h.8c.3-.1.4 0 .4 0l.3-.1m.2 0c-.2 0 0-.2 0 0Zm0-.1h.1Zm-1.9-.1h.3c.6-.2-.5 0-.6 0H59h.4ZM58 41l1.2-.2.7-.1c1.2-.2.1.1-.4.2l-3 .6a5 5 0 0 1-.5.1 17 17 0 0 1 2-.6m2.7-.6a.2.2 0 0 1 .2 0 .2.2 0 0 1 .1 0l-.1.2c-.1 0-.3-.1-.4 0 0-.2-.2-.3 0 0a3 3 0 0 0-.5 0h-.1c-1.4.1-2.8.7-4.2 1l.4-.2a25.7 25.7 0 0 1 4.3-1h.2m-1.4-.3h.3-.1l-.2.1c-.1 0 0 0 0 0Zm-2.2 0c-.8.2-.6 0-.5 0 .2 0 .3-.1 0 0l-3 .9c-.4.1-1.3.3-.4.2l-1.6.7c-1 .6.3.2.6.1l2.8-.9c1.6-.5 0 0-.5 0a28.9 28.9 0 0 1 1.5-.3c1.2-.2 2.5-.7 3.8-1l1.4-.2-1.9.5-.8.1c-2.3.8-4.6 1.2-6.8 2.2-.5.2-.4.2-.2.2 0 0 .1 0 0 0-.2.3 0 0 .2.2-.1.2.2.2.5.1h.1c-.5.3-.3.2-.1.3.3.3-.4.7.5.4 0 0-.2.1 0 .1.7 0-.2 0-.3.4.3 0 .6-.4.2.5L51 48c-.2.7 0 0 0-.2a6 6 0 0 0-.4 1.3l-.6 1.4c-.2.7-.1.4 0 0l-.3 1.2c-.4.7-1 2.5-1.1 3.3 0 .4 0 .7.5.9l1.9 1.3c1.2.7 1 1.2 2.9 1h.6l.9-.4-.4.1c-.1 0-1.5.5-.9.2l1-.4a12 12 0 0 0 3.2-2.2l-1.7 1 1-.7c1.3-1 1.4-1.7 1.3-1.5-.8.9-1.5 1.3-2.4 2l-1.4.7c1.1-.6 2.2-1.4 3.2-2.3 1.2-1.2.3-.4-.3.2.7-.7 1.2-1.5 1.7-2.3-.2 0-.3.2-.4.3l-1 1c-.2.3-.3.2-.5.4l-2 1.5s-1 .8-.6.3c1-.8 2.2-1.6 3.1-2.5a6 6 0 0 0 1-1.3c.2-.3.6-1 .5-1.4a12.1 12.1 0 0 1-4 3.5l2.3-2c.4-.4.7-1 1-1.5.6-1-.3.2-.5.4a21.6 21.6 0 0 1-3.1 2.7l1.5-1.2a11 11 0 0 0 2.2-2.9l-.7.8a22 22 0 0 1-1.9 1.8l-2.3 2 .7-.6.2-.2-1.8 1c-.5.3-.9.7-.7 0 .1-1.1-.2.4-.3.5-.2.2 0-.4 0-.4.3-1 0 0-.1.2 0 0 0 .3-.2.2l.6-1.9-.5 1.4-.3.7.4-1.5.2-.8s.1-.2 0-.1l.6-1.5c.2-.6.6-1.5.2-.2l-.8 2c.3-.5.6-1.1.8-1.8l.2-.5.3-.6c0-.2.6-.7.4-.2l-.5 1.3v.1l-.1.3v-.1c.2-.1.1-.1.1 0v-.2l.7-1.6c.3-.6.2-.4.6-.6.9-.6 1.8-1 2.7-1.4.5-.1 1.2-.6.3 0 1-.4 2-.6 3-.7 2.7-.2-1.3-.1.4-.4 1.1-.1-.8 0-.8 0a46.4 46.4 0 0 0-1.1.2h-.1c.2-.3.5-.3.9-.3h.3c.5 0 .4-.1.5-.3 0 0 .7 0-.2-.3a25.8 25.8 0 0 0-7.1 2.3c-.2 0-1.1.6-.4.1 1.2-1 3.9-1.7 5.4-2.2.4 0 2.4-.3 1-.4-.8 0 .9-.2.3-.3-1 0-2.8.7-4 .9 1-.4 2-.8 3-1 .2 0 .8 0 .6-.3-.2-.4-1.2-.2-1.6-.2-.4.1-.5.2-.1 0l-1.4.2v-.3c-.7.1-.5.6-.8.7-.3-.2.4-.7 0-.7s-.7-.2-1-.4h-.1v-.2c.1-.1-.3 0 0-.2 2-.8 5.6-2 7.7-1.8.4 0 1.4.6.8 0-.5-.5.2 0-.4-.6a7 7 0 0 1-.5-.8c-.5-.4-1.4-.5-1-.5.6 0-.8 0 0 0l.4-.1-.4-.5c-.1-.1.4-.2 0-.3H61s.2 0 0-.1a2 2 0 0 0-.8-.1c-1.1 0-2.3.2-3.4.6m-5.6 1.3c2.7-1.2 5.2-1.8 8.8-2.3H60c-1 0-7.2.9-8.7 2.4"/><path fill="url(#f)" d="M67.2 53.6Zm-7.3.4.1-.5v-.2l-.1.7Zm14.4-1.4v-.1c-.1 0 0 .2 0 0Zm0-.4s.2 0 0 0Zm-6.1-.1H68c0 .1 0 0 .1 0m-6.7-1.3Zm1-1v.1m-1-.2h.1m1 0c0 .1 0 0 0 0s0-.1 0 0m8.6 0c-.1 0 0 0 0-.1ZM71.5 49.1h-.1m0 0s.1 0 0 0Zm1.5 0V49m-10-.6c0 .1.2 0 .1 0Zm.2-.1v.3c-.2 0-.2.1-.2.2l-.2.5.2-.5.2-.3.1-.3v.1m-.1-.2s-.1.2 0 .1v-.1m.2 0Zm0-.3v.1m-.8-.7ZM62.6 46.2Zm0-.2v.1h.1m14.4-.2Zm-3.2 11c0-2.4 2-8.4 3.7-11.7-.9 1-4.3 9.6-3.7 11.8ZM67 45ZM70 46.7c-1.1 1.4.3-.3.6-.6a57.6 57.6 0 0 1-.6.6m-7-1.3Zm.4-1.1-.1.3a3 3 0 0 0-.3.7s-.1 0 0 .1H63v.1s-.1 0 0 0l-.1.2v.2c-.1 0 0 0 0 0l.2-.5.2-.5c0-.1.2 0 .1-.2.3-.2.2-.5.3-.6l.5-1.1c-.2 0-.6 1-.7 1.3m10.7-1.5-.1.1.2-.2-.1.1Zm0-.1-.1.2.3-.4v.1l-.1.1.1-.1c.3-.3.2-.1 0-.1l.1-.1-.3.3m-.3.1-.6.6 1.3-1.2-.7.6Zm-5.8-1c-.3 0-.2.1 0 0Zm10.3-2Zm-16 16.7v-.1.1Zm.2-.4v.7-.7m5.6-3.6v.2l-.4.7.4-.9m-7.6-.7v-.1.1m8.4-.7c.2-.1-.2.3-.2.3l.2-.3Zm-7.6-.2c0-.2.1-.1.1-.1l-.1.1Zm7.8 0 .1-.1-.1.1Zm3.9-.3v.2-.2m-10.6 3.5c0-.2.1-.1 0-.2l.2-.5c.3-1 .6-2 1.1-3l-.2.4-.2.7-.1.4c0-.1.1-.3 0-.1v.1l-.6 2.2c0 .1 0 1-.2.8l-.1 1.5-.2-1.5.3-1.2v.4m12.1-3.2.3-.7V50l-.2.8m-5.2-.7c0-.2.2-.2.1 0h-.1m-2-.2s0-.1 0 0v.1m2.3 0h-.1c0-.2.3-.3 0 0Zm5.2 0v-.2.2Zm-5.2-.3h.2-.2ZM69.2 49.7c0-.1 0 0 0 0m-.4.2-.3.4-.1.3-.1.1a4 4 0 0 0-.3.4v.2l-.2.2c-.1.1 0 .1 0 .2l-.2.1v.2l-.4 1c.1-1 .3-1.2.8-2l.2-.1.3-.6.2-.2V50m6.4-.4v.1-.1Zm-1.9.5V49.7h.1v-.2l.1-.1s0-.1 0 0c.1 0 0 0 0 0s0 .1 0 0v.4s-.1 0 0 0l-.1.1-.1.2m-11.8.5.2-.5.3-.8c0-.2.2 0 0 0a3.4 3.4 0 0 1-.1.5l-.1.4-.2.4m8.6-1.3.2-.1a.3.3 0 0 1-.3.2Zm3.4 0v-.2.2m-9.8-.3-.3.7v.3h-.1l.4-1m6 0c0-.2.1-.1 0 0Zm.7.1.1-.1c.2-.3.2-.2.2-.1-.2 0-.2.2-.3.3ZM71.4 48c0 .2-.4.5-.5.7-.2.3-.3 0 0-.2l.3-.2.2-.3m-6.3 0V48 48.2v-.1Zm6.5-.2-.1.2.1-.2ZM67.8 49c.2-.3.3-.6.6-.8.8-1-.4.7-.5.8l-.2.2.1-.2Zm5-.7v-.4c.1 0 0 0 0 .1v.3m-9.6-.3v-.1c.2 0 .1 0 0 0 .1 0 .1 0 0 0v.1m8.5-.2c.1-.2.3-.2 0 0m1.3-.2v.1m-9.7 0 .2-.3v.2h-.1v.1h-.1m11.3-.1v-.2c.1 0 .1 0 0 0v-.1h.1v.2c-.1 0-.1 0 0 0l-.3.6-.3.7v.2l-.2.3v.2c-.1 0-.1 0 0 0v.1l-.1.1-.1.3-.6 1.7-.9 3.3a32 32 0 0 1 2.3-7.4m-8.4-.5c.1 0 .1 0 0 0m7.5 1.9v-.2l.2-.5.1-.3.3-.6V47l.1-.2.1-.2v.3s-.1 0 0 0v.1l-.1.2-.1.2-.1.2v.1l-.1.1v.2l-.2.4v.2l-.1.2m-10.1-2v-.1h.1v.2s-.1 0 0 0h-.1v.1-.2m-1.5.8c0-.2 0-.4.2-.5V46.9c.1-.1.1-.1.1 0v.2c-.1 0-.1 0 0 0h-.1v.1l-.1.2v.1l-.1.1v.1l-.2.2v.3c-.2.2 0-.3 0-.3l.1-.2m3.9-.9c-.2 0 0-.1 0 0Zm.2 0c0-.1 0 0 0 0m-2.4 0v-.1m2.2 0s-.1 0 0 0m8.9.4V46.8h.1v-.2l-.1.3v.2m-1.8.2V47l.2-.6c.1.2 0 0 0 .2l-.1.5-.1.2v-.1M73.3 46.4v.1-.1Zm0 0c0-.3 0-.1.1-.1h-.1Zm-9.5.3.2-.6V46.5l-.1.1v.1m9.6-.5a.1.1 0 0 1 0 .1c-.1 0 0-.2 0-.1Zm-7.7 0v.1m9.3.3.2-.3v-.3.5l-.2.2m-11-.7h.1v.2c-.1 0-.1 0 0 0v-.2m2 0V46.3 46M63 46v-.1m2.8 0s0-.1 0 0m-2.7-.1Zm7.3 1.6.8-1c1.8-2-.6.9-.8 1Zm-4.3-1.7c.1.1 0 .1 0 .1v-.1Zm-1.8-.1Zm2.7.3v-.4 2.6-.3s-.2 0 0-.1c0-.1-.3-.1-.1-.2v-.1c0-.1 0-.3 0 0 0 .2 0 0 0 0v-1 .1-.6m-.8-.3v-.1.1m-.4-.1v-.1.1m.4-.3ZM64.5 45.6l.1-.1.2-.4-.2.6-.1.2-.1.2-.2.4-.2.3v.2l-.1.1-.1.2a2.2 2.2 0 0 0-.1.3A35 35 0 0 0 61 55c0-.8.2-1.6.5-2.3 0-.3.2-.6.3-.8l.1-.6.2-.4v-.3l.2-.3V50c0 .1.1 0 0 0h.1v-.1c0-.2.2-.3.2-.3v-.4c.2-.3.2-.1.2-.3l.4-1v.1c0 .3 0 0 .1 0v-.1l.1-.1.1-.2.2-.2.2-.6.2-.3s0-.2.2-.3v-.3l.2-.3m1.7-.6s-.1 0 0 0m-.6 0c.1 0 0 0 0 0m-2.1 1V45.6l.5-.8-.4.8v.2h-.1v.1l-.1.2-.2.2v.1a.1.1 0 0 0 0 .1v.1H63V47H63v.2a5 5 0 0 1-.4.8 7.3 7.3 0 0 1-.4 1l-.1.1c-.1 0 0 .1 0 .1-.3.2.5-1.3.5-1.5v-.1l.1-.2.1-.1V47l.1-.1v-.1a.1.1 0 0 0 .1-.1v-.1h.1V46.3h.1V46h.1V46m12.8-1c-.1 0-.1 0 0 0m-10 0c-.2 0 .1-.2 0 0ZM65.5 44.8v.1Zm.5-.2.1.2v-.2m.8.3v-.2c.1 0 0-.2 0-.2.3.2.2.3.1.5 0 0 0 .1 0 0v.4c-.2-.1 0-.5 0-.5h-.1m-2.4 0c.1-.1 0 0 0-.2l.2-.3c.2.1-.3 1-.3 1l-.2.3v.2H64v-.2h.1v-.2c.2 0 .2-.3.1-.1l.2-.4v-.1m-1.2.5.4-.7c0-.1.1-.4.2-.3-.3.3.2.2 0 .3l-.2.3v.2h-.2v.2c-.1 0 0 0 0 0v.2h-.1l-.3.7v.1a7.4 7.4 0 0 1-.4.7v.1l-.1.2-.2.4-.2.4v.2l-.4 1-.2.5-.1.3-.4.7c0-.4.2-.8.4-1.1v-.2l.7-1.7-1 2a28.2 28.2 0 0 1 1.2-2.8l.1-.2.2-.3.1-.2v-.2h.1l.1-.3.2-.3v-.2m2.8-1v-.2.3-.1Zm1-.1c0-.2.1-.3 0 0m-1.6-.2c.1.1.1.2 0 .2V44m0-.3c0-.3.1 0 0 .1v-.1Zm11 2.4.7-1.2.7-1c.3-.5.4-.6 0-.1a36.8 36.8 0 0 0-1.3 2.3ZM67.2 44c0-.4.2-1 0-.2v.2c.1-.1.1 0 0 0Zm8.7-.2a2.6 2.6 0 0 0 .1-.2l.2-.3c.2-.1-.2.5-.2.5l-.1.1s0 .1 0 0l-.2.2v.2l-.1.2v.1h-.1a.1.1 0 0 1 0 .1l-.1.2v.1l-.1.1v.1l-.2.3-.1.2v.1l-.2.5h-.1V46.7h-.1v.1c-.1 0 0 0 0-.1v-.1l.1-.3a4.6 4.6 0 0 0 .3-.7v-.1l.1-.1v-.1h.1V45c.1-.1.1-.1 0-.1h.1v-.2h.1v-.2h.1v-.1h.1v-.1l.1-.1V44c.1 0 .1 0 0 0V44l.2-.2m-8.5-.5c0-.2.1 0 0 0Zm-1.8-.1c-.2 0 0-.1 0 0Zm8 2.4c-.1 0 1.2-2.8 1.4-2.7 0 0-.1.1 0 .1l-.2.2-.2.3-.2.5s-.1 0 0 0l-.5 1-.3.8c-.1.3-.2.3-.1 0v-.2h.1m-8.1-2.8c0-.1 0-.2 0 0v.1-.1m9.6-.3c0-.2.2-.1.2 0H75m-9.7 0v-.1c.1.1 0 .2 0 .2v-.2m10.5-.2c.3-.3.1 0 .1 0l-.1.3-.2.4h-.1V43.3l-.2.2v.1l-.3.4-.2.5-.2.3c-.2.4-.2.3-.1.4l-.2.4-.2.4c-.2 0 0 0 0 0l-.5 1.2-.2.3v.2h-.1V48l-.1.1v.1l-.1.2v.2H73v.2l-.1.2v.2-.2.5l-.1.1v.2l-.1.1v.2a6.6 6.6 0 0 0-.4.8.1.1 0 0 0 0 .2v.2l-.1.2v.2h-.1v.2-.5l.1-.3.1-.4v-.1c0-.1 0-.3.1-.2V50h.1v-.4c.1 0 .1-.2 0-.2 0 0 .1 0 0 0h.1V49c.1 0 .1 0 0 0l.1-.2.1-.2v-.2s.1 0 0 0l.1-.1V48h.1V48l.1-.1V47.6l.1-.2a5 5 0 0 1 .3-.5l.8-1.8.5-1 .2-.4.2-.3.2-.4.1-.1.2-.3v-.2l.1-.2m.2-.3c.2-.2 0 .1 0 .1m1.9-.1c.1-.2 0-.1 0 0h-.1Zm1.3-.2v-.2c0 .2 0 .3-.2.4l-.3.3.5-.5Zm-14-.2c.1-.2.3 0 .2.1h-.1Zm1 2.6c-.2-.1 0 0-.1-.2v-1.1c0-.5.5-2.6.4-1.2v.3c-.2 1.4-.3 2.1-.2 3.5V46.6c.1.1 0 0 0 0l.1.2v.6l-.1-1.2-.2-2c-.2 0 0 0 0-.1m-.8-2.9c.2-.1.2 0 .1 0h-.1Zm12.8 0c.3-.3 0 0 0 .2v-.1Zm0 .2c.1-.1 1-1 .4-.3a9 9 0 0 0-.6.6c0 .2-1.1 1.5-1.1 1.5l.6-1.1c0-.1.1 0 .1 0v-.2h.1l.2-.4v.1c0 .1 0 0 0 0l.1-.1c.2-.2 0 0 0 0 0-.1 0-.1.1 0m.6-1.2-.2.1.2-.1Zm-4 1.8.2-.1c-.2.2-.6.6-.2.3l-.6.7c-1.8 1.8-3.8 3.4-5.4 5.4 0 .1-1 1.4-1 1.1l.1-.1.1-.4.7-1c.6-.7-.6.9-.6.9-.2.3 0 .2.1 0l.2-.3a39 39 0 0 1 5-5.4c.1 0 2.5-2.2 1.2-1.3-.7.5.6-.6.8-.9a20 20 0 0 0-3.2 2.7l-2 2.1-2.4 3.1s.3-.3 0-.1c-.3-.1-.1-2-.1-2.3 0-.2 0-.1 0 0-.1.1-.1.3-.1-.1a52 52 0 0 1-.1 2.7c0 .5 0 .2-.1.2 0 0 0-.1 0 0l-.1-.3a18 18 0 0 1 .2-4.8 19.4 19.4 0 0 1 .5-1.7c-.4.7-.7 1.3-.2.1.5-1.1.1-.5-.1 0l-.2.5.4-1.3v-.1l-.1-.1h-.2c0-.4-.1 0-.4.1.2-.3.4-.1.3-.3l-.2-.2c-.5-.5-.8-.1-1-.5l-.8-.5c-.4-.2-.6-.6-.7 0 0 1 .3 1 0 2.1-.2.3-1.2 2.8-1.4 2.9l-.1.3-.1.2v-.2l-.2.3V46.2l-.1.2a.1.1 0 0 1-.1.1v.2l-.1.1v.1s-.1 0 0-.1v-.4.3l-.2.4-.7 1.5-.1.4c0-.2 0-.4.2-.6l-.1.5-.4.8c-.3.8-1.3 3.3-1.4 4l.5-1.3c.3-.6.1 0 0 .1l-.2.5c0 .4.4-.6.4-.6 0-.1.5-1.4.6-1.3l-.3.6-.1.3v.2c-.3.2 0 .4-.3.5v.3l-.1.1c0 .1-.6 1.3-.6 2 0 1 1.9 2.8 2.7 3.5.4.2 0 0 .1-1.6.2-1.2.4-2.4.8-3.6 0-.4.2-.4.1-.5.2 0 .2-.3.3-.5l.7-1.6v-.4c.1 0 .1 0 0 0 0 0 .1-.1 0-.1.1 0 .1 0 0 0l.1-.1V50l.1-.1.4-1v-.1h.1v-.2l.2-.1.1.2.2.4.1.3v.1l.1.1.2.2.2.4.1.1v.1c.2.3.2.6 0 1 0 .3.2 1.3.2.3.1-1 .4-1 .2-.2-.2.9 0 .6 0 1.3v.2h.1c.1.3.2.2.2.1v.5c0 .5 0 .3 0 0h.1v.4a8 8 0 0 1 1.7-3.2l.2-.3c.2-.3.3-.3.3-.2h-.1l-.6.8-.5.8c.6-.7-.2.4-.2.5-.3.6-.6 1.1-.6 1.7v.6a11.3 11.3 0 0 1 2.6-4.2l.5-.5a37 37 0 0 1 1-.9c-.2 0 0-.2.1-.2l.2-.1s0-.1 0 0l-.5.6c-.1.2-.1.1 0 .1v-.1h.1l.4-.4-.1.3-1.2 4.6c-.5 1.9 0 2.2 1.4 3.2.3.2 1 1 1.2 1 0 0-.1 0 0 .1.7.5.3-.6.2-.8a9 9 0 0 1 .1-3.4v-.2l.4-1.8c.1-.5 0-.1 0 0 .2-1.2.6-2.3 1-3.3v.1l.1-.2.1-.2v-.2h.1l.2-.5a12.3 12.3 0 0 1 .7-1.4 21.8 21.8 0 0 0-1 2.4 27 27 0 0 0-1.4 5c-.1.5-.3 1.7-.2 2.1l.8-4c.5-1.3 0 .2 0 .3 0 .6.5-1.5.5-1.5l.1-.2.5-1.4.2-.4v-.2h.1v-.2l.1-.1s0-.1 0 0V48c.1-.2.1-.2 0-.2h.1v-.1c0-.1 0-.2.1-.1a4.8 4.8 0 0 1 .6-1.2l.1-.1v-.1c.1 0 0 0 0 0 0 .1 0 0 .1 0 0-.1 0 0 0 0V46h.1l.1-.3c-.2 0 .2 0 0-.1 0 0 .2 0 0 0l1.8-2.8 1-1.1c0-.3-.1-.2-.3-.2 0 0 .1-.6-.3-.5-.2 0 0 0 0-.1 0 0 .1-.1 0-.1h-.4l-.6.2c-.6.6-.6.7-.1 0l.2-.3c0-.2 0-.1 0 0v-.2h.1c.1 0 .5 0 .4-.2l-.1-.1.2-.1H78V40a.1.1 0 0 1 0-.1h.1c-.6.2.2-.2-.1-.2l-.3-.2c-.2-.2-1.3 1.7-1.4 2l-.2.2c0 .2-.3.4 0 0a140.4 140.4 0 0 1 .8-1.5c.2-.4.5-.5.2-1V39c-.4-.1 0 0-.1-.2h-.2c-.2 0-.2 0-.2-.2-.7 1.2-1.2 2.4-2.1 3.5"/><path fill="url(#g)" d="M81.2 58.5h.1l-.2-.1Zm-.6-4.2v-.1Zm5.6-.6Zm-5.6 0v-.1m0-.1h.1m6.1.5.3-.3.2-.3-.5.5m-6.1-.6s0 .1 0 0c.1-.2.1-.2 0-.2v.2m.1-.5v.1l.1-.2v.1m.2-.1c.1-.2.1-.2 0-.2v.2Zm.1-.3c0 .1.1 0 0 0Zm.1-.2s.1 0 0 0Zm5.7-2v.1-.1Zm-4.6.4-.2.4.1-.2c.2 0 .6-.7.5-.7l-.4.5m1.2-.8Zm2-1.2c-.5.2-2.2 1-2.6 1.4h.2l.4-.2.4-.2 2.2-1.1h.1l2.2-.8c-1 .1-2 .4-2.9.9m-2.5-3.8v.2-.2m-.4-.3c.1 0 0-.1 0-.1Zm1-.5-.8.4a10.5 10.5 0 0 0 2.6-1l-1.8.7m3-.7c-1.2.3-.2.2 0 0h.1-.1Zm0-1.5Zm.7-.1Zm1.1-.1s.1 0 0-.1Zm-.1 0h.1-.1m-8.6 16c-.1 0-.2 0 0 0l.1.1h-.1Zm3.7-.6-.3.2-.6.3.9-.5Zm-3-.4c0-.1.1 0 0 0m-2.8-.3.1.1c-.1 0-.2-.3 0 0Zm4.5-.5s.1-.1.2 0h-.2c-.3.3-1.2.8-1.6.7l1.5-.6m-3.2-.4Zm2.1-.1c.1 0 0 0 0 0m.2 0c-.2 0 0-.1 0-.1m.1 0s.2-.1.2 0h-.1m-2-.2v.2s-.1-.2 0-.2m-.5.3v-.3V55.5m2.6-.2.2-.1c.3-.2 0 0-.1 0ZM79 55c.1 0 0 0 0-.2v.3m4.3-.3h.1a.2.2 0 0 1-.1 0Zm-1 0h.2a1 1 0 0 1-.5.3l.3-.2Zm.2 0c0-.2 0-.1.1 0m-3.5-.1c0-.2.1-.2 0-.1m3.7 0 .1-.1-.3.2.2-.1m.2-.2.3-.1H83m-3.8-.4c.1 0-.1.2 0 .1m.4 0c0-.2.2-.1.1 0v.1l-.2.4s.2 0 0 0v.5c-.2 0 0 0-.1.1l.2-1m3.6 1.2 2.2-1.4-.8.6-1.6 1.2c-.6.4-.5.2-.3 0 .1 0 .2-.1 0 0l-.2.1s-.1-.1 0 0l.1-.1.6-.4m-4-1.5c.1 0 0 0 0 0m.1-.3c.1-.3.1 0 0 0m6.4.1h.2c.3-.4.1-.2 0 0l-.3.1h.1ZM77 55l.2-1.3c0-.2.2-.5.2 0a6.9 6.9 0 0 0-.4 1.3h.1-.1m2.5-1.5s0-.1 0 0m0-.1c0-.2.1-.2 0 0M79 53v.1-.1m-1.6 0v.2s.1-.5 0-.1Zm9.1 0-.2.2.2-.2Zm-6.6.2.7-1.6c0 .3-.2.5-.3.8-.1.2 0 .5-.2.6-.2 0 0 0-.1.3l-.1.3-.1.1v-.3l.1-.2m.8-1.7c-.1 0-.1 0 0 0Zm-1.8 1.6c0-.4.2-.7.3-1.1l.5-1c0 .4-.2.8-.4 1.2l-.3.7v.1l-.1.1m.9-2.3s-.2 0 0 0m-1.5-.7c.1-.4.1-.4 0 0l-.3.7c0-.3.2-.5.3-.7m.6.1v-.4c.2-.4.1-.1 0 .2v.3-.1m4.7-1.7 1.2-.5h.1V48h.2s-.1 0 0 0a11.6 11.6 0 0 1-2.2 1l.7-.4M81.4 47.7l-.1.1v-.1Zm6.6-.6h-.4c.3 0 1-.1.4 0Zm-5.5 0c1.7-.7 1.8-.5 0 .2l-.3.1a4 4 0 0 1-.5.2l.8-.4Zm1-1.5h-.1c0-.2.1-.1.1 0m-2-1c.2.3-.6 2-.8 2.4v.1l.7-2.5Zm.6-.1.2.2c.1 0 .2.1.2.3 0 .2 0 .4-.2.3 0-.9-.2-.3-.3.2l-.5 1.2s.2-1.5.6-2.2Zm-2 1.6c.2-.4.3-1.5.6-1.7.2.5-.3 1.9-.2 1.2 0-.3 0-.5-.1 0a15.3 15.3 0 0 1-.7 2l.5-1.5Zm1.6-1.9c.2-.1 2.1-1 .8-.3l-.8.4m4.2-1.6h.2l-.3.1Zm-5.1-.2s.3-.1.2 0l-.2.1c-.1 0-.1 0 0 0m2.2-.8-.6.2-.4.1h-.2l1.2-.3Zm6-.2H89.4c0 .2-.1 0-.1 0a.1.1 0 0 1-.1 0Zm-.1 0c-.4 0 .3 0 .1.1h-.4a7.1 7.1 0 0 1-1.5.3l-.7.2c-.5 0-4.8 1.4-4.8 1.3.7-.4 3.3-1 4.2-1.4h.2l.7-.3s.1 0 0 0h.2c0 .1.2 0 .4 0h.1s.2-.1 0-.2h1.2l.3-.1m.2 0c-.2 0-.1-.2 0 0Zm0-.1Zm-2-.2h.3l-.5.1h-.1.4Zm-1.4-.1h.1l1.2-.2.6-.1c1.3-.2.2.1-.3.2l-3 .6a5 5 0 0 1-.6 0l2-.5m2.7-.6a.2.2 0 0 1 .2-.1.2.2 0 0 1 .2.1s0 .2-.2.1h-.4c.1-.1-.1-.2 0 0a3 3 0 0 0-.4 0h-.2c-1.4.2-2.7.8-4.2 1l.5-.1a25.8 25.8 0 0 1 4.3-1h.2m-1.4-.3h.3-.4Zm-2.2-.1c-.8.2-.7.2-.5 0 .1 0 .2 0 0 0l-3 1c-.4.1-1.4.3-.4.2l-1.6.7c-1 .6.3.2.6 0l2.8-.8c1.5-.5-.1 0-.6 0a28.9 28.9 0 0 1 1.5-.3l3.8-1 1.5-.2-1.9.4-.9.2c-2.3.7-4.6 1.2-6.8 2.1l-.2.2h.1c-.3.3 0 .1.1.3 0 .2.3.2.5.1h.2c-.6.2-.3.2-.2.3.3.3-.4.7.5.4 0 0-.2.1 0 .1.7 0-.1 0-.2.4.3 0 .6-.5.2.5-.6 1-1 2.2-1.4 3.4-.3.6 0 0 0-.2a6 6 0 0 0-.5 1.3l-.5 1.4c-.3.7-.2.4 0 0l-.4 1.2c-.3.7-1 2.5-1 3.3 0 .4 0 .6.4.9.6.3 1.2.9 2 1.3 1.1.7 1 1.2 2.8 1a4 4 0 0 0 1.5-.4l-.4.1s-1.4.5-.9.2l1-.4a12 12 0 0 0 3.2-2.2l-1.7 1 1-.7c1.3-1 1.5-1.7 1.4-1.6-.8 1-1.5 1.4-2.4 2l-1.5.8c1.2-.6 2.2-1.4 3.2-2.3 1.2-1.2.3-.4-.3.2.7-.7 1.3-1.5 1.7-2.3l-.4.3-1 1c-.2.3-.2.2-.5.4L83.7 56s-1 .7-.6.3c1-.8 2.2-1.6 3-2.5h.1a6 6 0 0 0 1-1.3c.1-.3.5-1 .5-1.4a12.1 12.1 0 0 1-4 3.5l2.2-2L87 51c.6-1-.3.2-.5.4a21.4 21.4 0 0 1-1.7 1.5 11 11 0 0 0 2.3-2.9l-.8.7a22 22 0 0 1-1.8 2l-2.3 1.8.7-.5s.5-.4.1-.2l-1.7 1c-.6.3-1 .7-.8 0 .2-1.1-.1.4-.2.5-.2.2 0-.4 0-.5.2-.9 0 0-.2.3 0 0 0 .3-.1.2l.5-1.9-.5 1.4-.2.6c-.2 0 .3-1.3.3-1.4l.3-.8V53l.6-1.5c.2-.6.6-1.4.1-.1l-.7 2 .7-1.8.2-.5.3-.6c.1-.2.7-.7.5-.2l-.5 1.3v.1l-.2.3c0 .2.1-.1.1-.1.1-.1 0-.1 0 0v-.2c.4-.5.6-1 .8-1.6.3-.6.1-.4.6-.6.8-.6 1.8-1 2.7-1.4.4-.2 1.2-.6.3 0 1-.4 2-.6 2.9-.7 2.7-.2-1.2-.1.5-.4h-.9a41.5 41.5 0 0 0-1 .1h.1-.2c0 .1 0 .1 0 0 .1-.2.5-.2.8-.2h.3c.6 0 .4-.1.5-.3 0 0 .7 0-.1-.3a25.8 25.8 0 0 0-7.1 2.3c-.3 0-1.2.6-.5 0 1.3-.9 4-1.6 5.5-2 .4-.2 2.3-.4 1-.5-.8 0 .9-.3.3-.3-1 0-2.9.7-4 .9.9-.4 1.9-.8 3-1 .1 0 .7 0 .6-.3-.2-.4-1.2-.2-1.6-.2-.4 0-.5.2-.2 0l-1.4.2s.2-.3 0-.3c-.6.1-.4.6-.8.7-.3-.2.5-.7 0-.7-.3 0-.6-.2-1-.4 0 0-.1.1 0-.2 0-.2-.3 0 0-.2 2-.8 5.6-2 7.6-1.8.4 0 1.4.6.9 0-.6-.5.2 0-.4-.6a7 7 0 0 1-.6-.8c-.4-.4-1.3-.5-1-.5h.1c.2 0 .4 0 .3-.1.2-.2-.2-.4-.3-.5-.2-.1.4-.2-.1-.3H89s.1 0 0-.1a2 2 0 0 0-.8-.1c-1.2 0-2.3.2-3.4.6m-5.7 1.3c2.7-1.2 5.3-1.8 8.8-2.3-1 0-7.3.9-8.7 2.3"/><defs><linearGradient id="a" x1="0" x2="84.8" y1="49.7" y2="68.5" gradientUnits="userSpaceOnUse"><stop stop-color="#F2581E"/><stop offset=".7" stop-color="#EE2922"/><stop offset="1" stop-color="#EC1623"/></linearGradient><linearGradient id="b" x1="0" x2="84.8" y1="49.7" y2="68.5" gradientUnits="userSpaceOnUse"><stop stop-color="#F2581E"/><stop offset=".7" stop-color="#EE2922"/><stop offset="1" stop-color="#EC1623"/></linearGradient><linearGradient id="c" x1="0" x2="84.8" y1="49.7" y2="68.5" gradientUnits="userSpaceOnUse"><stop stop-color="#F2581E"/><stop offset=".7" stop-color="#EE2922"/><stop offset="1" stop-color="#EC1623"/></linearGradient><linearGradient id="d" x1="0" x2="84.8" y1="49.7" y2="68.5" gradientUnits="userSpaceOnUse"><stop stop-color="#F2581E"/><stop offset=".7" stop-color="#EE2922"/><stop offset="1" stop-color="#EC1623"/></linearGradient><linearGradient id="e" x1="0" x2="84.8" y1="49.7" y2="68.5" gradientUnits="userSpaceOnUse"><stop stop-color="#F2581E"/><stop offset=".7" stop-color="#EE2922"/><stop offset="1" stop-color="#EC1623"/></linearGradient><linearGradient id="f" x1="0" x2="84.8" y1="49.7" y2="68.5" gradientUnits="userSpaceOnUse"><stop stop-color="#F2581E"/><stop offset=".7" stop-color="#EE2922"/><stop offset="1" stop-color="#EC1623"/></linearGradient><linearGradient id="g" x1="0" x2="84.8" y1="49.7" y2="68.5" gradientUnits="userSpaceOnUse"><stop stop-color="#F2581E"/><stop offset=".7" stop-color="#EE2922"/><stop offset="1" stop-color="#EC1623"/></linearGradient></defs></svg>